<svg id="kity_svg_6" xmlns="http://www.w3.org/2000/svg" xmlns:xlink="http://www.w3.org/1999/xlink" version="1.1" width="1725" height="1119" style="background: rgb(251, 251, 251); visibility: visible;" viewBox="0 0 1725 1119"><defs id="kity_defs_7"><linearGradient id="kity_linearGradient_17" x1="0" y1="0" x2="0" y2="1"><stop id="kity_stop_18" offset="0" stop-color="rgb(255, 255, 255)"></stop><stop id="kity_stop_19" offset="1" stop-color="rgb(204, 204, 204)"></stop></linearGradient><marker id="kity_marker_2" orient="auto" refX="6" refY="0" viewBox="-7 -7 14 14" markerWidth="7" markerHeight="7" markerUnits="userSpaceOnUse"><path id="kity_path_3" fill="rgb(115, 161, 191)" stroke="none" d="M6,0A6,6,0,1,1,-6,0A6,6,0,1,1,6,0"></path></marker></defs><g id="kity_g_8"><g id="minder1" text-rendering="optimize-speed"><g id="minder_connect_group1"><path id="kity_path_31" fill="none" stroke="rgb(115, 161, 191)" stroke-width="1" d="M1163.5,600.5A190,244,0,0,1,1353.5,356.5"></path><path id="kity_path_33" fill="none" stroke="rgb(115, 161, 191)" stroke-width="1" d="M1425.5,356.5C1440.5,356.5,1440.5,175.5,1455.5,175.5L1535.5,175.5"></path><path id="kity_path_35" fill="none" stroke="rgb(115, 161, 191)" stroke-width="1" d="M1425.5,356.5C1440.5,356.5,1440.5,357.5,1455.5,357.5L1500.5,357.5"></path><path id="kity_path_37" fill="none" stroke="rgb(115, 161, 191)" stroke-width="1" d="M1425.5,356.5C1440.5,356.5,1440.5,466.5,1455.5,466.5L1535.5,466.5"></path><path id="kity_path_39" fill="none" stroke="rgb(115, 161, 191)" stroke-width="1" d="M1535.5,466.5C1550.5,466.5,1550.5,409.5,1565.5,409.5L1645.5,409.5"></path><path id="kity_path_41" fill="none" stroke="rgb(115, 161, 191)" stroke-width="1" d="M1535.5,466.5C1550.5,466.5,1550.5,461.5,1565.5,461.5L1633.5,461.5"></path><path id="kity_path_43" fill="none" stroke="rgb(115, 161, 191)" stroke-width="1" d="M1535.5,466.5C1550.5,466.5,1550.5,513.5,1565.5,513.5L1668.5,513.5"></path><path id="kity_path_45" fill="none" stroke="rgb(115, 161, 191)" stroke-width="1" d="M1425.5,356.5C1440.5,356.5,1440.5,565.5,1455.5,565.5L1583.5,565.5"></path><path id="kity_path_47" fill="none" stroke="rgb(115, 161, 191)" stroke-width="1" d="M1163.5,600.5A190,39,0,0,0,1353.5,639.5"></path><path id="kity_path_49" fill="none" stroke="rgb(115, 161, 191)" stroke-width="1" d="M1442.5,639.5C1457.5,639.5,1457.5,627.5,1472.5,627.5L1552.5,627.5"></path><path id="kity_path_51" fill="none" stroke="rgb(115, 161, 191)" stroke-width="1" d="M1442.5,639.5C1457.5,639.5,1457.5,679.5,1472.5,679.5L1527.5,679.5"></path><path id="kity_path_53" fill="none" stroke="rgb(115, 161, 191)" stroke-width="1" d="M1527.5,679.5C1542.5,679.5,1542.5,679.5,1557.5,679.5L1613.5,679.5"></path><path id="kity_path_55" fill="none" stroke="rgb(115, 161, 191)" stroke-width="1" d="M1163.5,600.5A190,129,0,0,0,1353.5,729.5"></path><path id="kity_path_57" fill="none" stroke="rgb(115, 161, 191)" stroke-width="1" d="M1431.5,729.5C1446.5,729.5,1446.5,743.5,1461.5,743.5L1541.5,743.5"></path><path id="kity_path_59" fill="none" stroke="rgb(115, 161, 191)" stroke-width="1" d="M1163.5,600.5A190,245,0,0,0,1353.5,845.5"></path><path id="kity_path_61" fill="none" stroke="rgb(115, 161, 191)" stroke-width="1" d="M1469.5,845.5C1484.5,845.5,1484.5,807.5,1499.5,807.5L1579.5,807.5"></path><path id="kity_path_63" fill="none" stroke="rgb(115, 161, 191)" stroke-width="1" d="M1469.5,845.5C1484.5,845.5,1484.5,859.5,1499.5,859.5L1591.5,859.5"></path><path id="kity_path_65" fill="none" stroke="rgb(115, 161, 191)" stroke-width="1" d="M1469.5,845.5C1484.5,845.5,1484.5,911.5,1499.5,911.5L1596.5,911.5"></path><path id="kity_path_67" fill="none" stroke="rgb(115, 161, 191)" stroke-width="1" d="M1163.5,600.5A190,275,0,0,0,973.5,325.5"></path><path id="kity_path_69" fill="none" stroke="rgb(115, 161, 191)" stroke-width="1" d="M888.5,325.5C873.5,325.5,873.5,313.5,858.5,313.5L786.5,313.5"></path><path id="kity_path_71" fill="none" stroke="rgb(115, 161, 191)" stroke-width="1" d="M888.5,325.5C873.5,325.5,873.5,365.5,858.5,365.5L791.5,365.5"></path><path id="kity_path_73" fill="none" stroke="rgb(115, 161, 191)" stroke-width="1" d="M1163.5,600.5A190,161,0,0,0,973.5,439.5"></path><path id="kity_path_75" fill="none" stroke="rgb(115, 161, 191)" stroke-width="1" d="M888.5,439.5C873.5,439.5,873.5,427.5,858.5,427.5L766.5,427.5"></path><path id="kity_path_77" fill="none" stroke="rgb(115, 161, 191)" stroke-width="1" d="M888.5,439.5C873.5,439.5,873.5,479.5,858.5,479.5L790.5,479.5"></path><path id="kity_path_79" fill="none" stroke="rgb(115, 161, 191)" stroke-width="1" d="M1163.5,600.5A190,271,0,0,1,973.5,871.5"></path><path id="kity_path_81" fill="none" stroke="rgb(115, 161, 191)" stroke-width="1" d="M845.5,871.5C830.5,871.5,830.5,724.5,815.5,724.5L760.5,724.5"></path><path id="kity_path_83" fill="none" stroke="rgb(115, 161, 191)" stroke-width="1" d="M760.5,724.5C745.5,724.5,745.5,542.5,730.5,542.5L411.5,542.5"></path><path id="kity_path_85" fill="none" stroke="rgb(115, 161, 191)" stroke-width="1" d="M760.5,724.5C745.5,724.5,745.5,620.5,730.5,620.5L597.5,620.5"></path><path id="kity_path_87" fill="none" stroke="rgb(115, 161, 191)" stroke-width="1" d="M597.5,620.5C582.5,620.5,582.5,594.5,567.5,594.5L331.5,594.5"></path><path id="kity_path_89" fill="none" stroke="rgb(115, 161, 191)" stroke-width="1" d="M597.5,620.5C582.5,620.5,582.5,646.5,567.5,646.5L176.5,646.5"></path><path id="kity_path_91" fill="none" stroke="rgb(115, 161, 191)" stroke-width="1" d="M760.5,724.5C745.5,724.5,745.5,724.5,730.5,724.5L609.5,724.5"></path><path id="kity_path_93" fill="none" stroke="rgb(115, 161, 191)" stroke-width="1" d="M609.5,724.5C594.5,724.5,594.5,698.5,579.5,698.5L259.5,698.5"></path><path id="kity_path_95" fill="none" stroke="rgb(115, 161, 191)" stroke-width="1" d="M609.5,724.5C594.5,724.5,594.5,750.5,579.5,750.5L217.5,750.5"></path><path id="kity_path_97" fill="none" stroke="rgb(115, 161, 191)" stroke-width="1" d="M760.5,724.5C745.5,724.5,745.5,802.5,730.5,802.5L609.5,802.5"></path><path id="kity_path_99" fill="none" stroke="rgb(115, 161, 191)" stroke-width="1" d="M609.5,802.5C594.5,802.5,594.5,802.5,579.5,802.5L332.5,802.5"></path><path id="kity_path_101" fill="none" stroke="rgb(115, 161, 191)" stroke-width="1" d="M760.5,724.5C745.5,724.5,745.5,907.5,730.5,907.5L585.5,907.5"></path><path id="kity_path_103" fill="none" stroke="rgb(115, 161, 191)" stroke-width="1" d="M585.5,907.5C570.5,907.5,570.5,854.5,555.5,854.5L20.5,854.5"></path><path id="kity_path_105" fill="none" stroke="rgb(115, 161, 191)" stroke-width="1" d="M585.5,907.5C570.5,907.5,570.5,960.5,555.5,960.5L316.5,960.5"></path><path id="kity_path_107" fill="none" stroke="rgb(115, 161, 191)" stroke-width="1" d="M845.5,871.5C830.5,871.5,830.5,1046.5,815.5,1046.5L569.5,1046.5"></path><path id="kity_path_109" fill="none" stroke="rgb(115, 161, 191)" stroke-width="1" d="M569.5,1046.5C554.5,1046.5,554.5,1011.5,539.5,1011.5L112.5,1011.5"></path><path id="kity_path_111" fill="none" stroke="rgb(115, 161, 191)" stroke-width="1" d="M569.5,1046.5C554.5,1046.5,554.5,1081.5,539.5,1081.5L459.5,1081.5"></path><path id="kity_path_113" fill="none" stroke="rgb(115, 161, 191)" stroke-width="1" d="M459.5,1081.5C444.5,1081.5,444.5,1099.5,429.5,1099.5L133.5,1099.5"></path><path id="kity_path_378" fill="none" stroke="rgb(115, 161, 191)" stroke-width="1" d="M1535.5,175.5C1550.5,175.5,1550.5,45.5,1565.5,45.5L1681.5,45.5"></path><path id="kity_path_386" fill="none" stroke="rgb(115, 161, 191)" stroke-width="1" d="M1535.5,175.5C1550.5,175.5,1550.5,97.5,1565.5,97.5L1705.5,97.5"></path><path id="kity_path_394" fill="none" stroke="rgb(115, 161, 191)" stroke-width="1" d="M1535.5,175.5C1550.5,175.5,1550.5,149.5,1565.5,149.5L1633.5,149.5"></path><path id="kity_path_402" fill="none" stroke="rgb(115, 161, 191)" stroke-width="1" d="M1535.5,175.5C1550.5,175.5,1550.5,201.5,1565.5,201.5L1620.5,201.5"></path><path id="kity_path_410" fill="none" stroke="rgb(115, 161, 191)" stroke-width="1" d="M1535.5,175.5C1550.5,175.5,1550.5,253.5,1565.5,253.5L1620.5,253.5"></path><path id="kity_path_418" fill="none" stroke="rgb(115, 161, 191)" stroke-width="1" d="M1535.5,175.5C1550.5,175.5,1550.5,305.5,1565.5,305.5L1609.5,305.5"></path></g><g id="minder_node1"><path id="node_outline1" fill="rgb(115, 161, 191)" stroke="rgb(115, 161, 191)" d="M1096.5,580.5h134a5,5,0,0,1,5,5v30a5,5,0,0,1,-5,5h-134a5,5,0,0,1,-5,-5v-30a5,5,0,0,1,5,-5z" stroke-width="3"></path><g id="node_text1" fill="white"><text id="kity_text_22" text-rendering="inherit" font-size="16" dy=".8em" y="590.0999999046326" x="1115.5">专业知识体系</text></g></g><g id="kity_g_12"><path id="kity_path_13" fill="none" stroke="none" d="M1115.5,600.5h0v0h0z"></path></g><g id="kity_g_14"><path id="kity_path_15" fill="none" stroke="none" d="M1115.5,600.5h0v0h0z"></path><path id="kity_path_16" fill="none" stroke="none"></path></g><g id="minder_node2"><g id="node_expander8" style="cursor: pointer;"><path id="kity_path_273" fill="white" stroke="gray" d="M1354.5,356.5A6,6,0,1,1,1342.5,356.5A6,6,0,1,1,1354.5,356.5"></path><path id="kity_path_274" fill="none" stroke="gray" d="M1344,356.5L1353,356.5"></path></g><path id="node_outline9" fill="rgb(238, 243, 246)" stroke="rgb(115, 161, 191)" d="M1358.5,343.5h64a3,3,0,0,1,3,3v20a3,3,0,0,1,-3,3h-64a3,3,0,0,1,-3,-3v-20a3,3,0,0,1,3,-3z" stroke-width="1"></path><g id="node_text9" fill="black"><text id="kity_text_129" text-rendering="inherit" font-size="14" dy=".8em" y="347.40000009536743" x="1375.5">C++</text></g></g><g id="minder_node3"><g id="node_expander1" style="cursor: pointer;"><path id="kity_path_252" fill="white" stroke="gray" d="M1465.5,161.5A6,6,0,1,1,1453.5,161.5A6,6,0,1,1,1465.5,161.5"></path><path id="kity_path_253" fill="none" stroke="gray" d="M1455,161.5L1464,161.5"></path></g><path id="node_outline2" fill="none" stroke="none" d="M1470.5,150.5h60a5,5,0,0,1,5,5v12a5,5,0,0,1,-5,5h-60a5,5,0,0,1,-5,-5v-12a5,5,0,0,1,5,-5z" stroke-width="3"></path><g id="node_text2" fill="black"><text id="kity_text_115" text-rendering="inherit" font-size="12" dy=".8em" y="153.70000004768372" x="1475.5">基础知识</text></g></g><g id="minder_node4"><g id="node_expander2" style="cursor: pointer;" display="none"><path id="kity_path_255" fill="white" stroke="gray" d="M1465.5,343.5A6,6,0,1,1,1453.5,343.5A6,6,0,1,1,1465.5,343.5"></path><path id="kity_path_256" fill="none" stroke="gray"></path></g><path id="node_outline3" fill="none" stroke="none" d="M1470.5,332.5h25a5,5,0,0,1,5,5v12a5,5,0,0,1,-5,5h-25a5,5,0,0,1,-5,-5v-12a5,5,0,0,1,5,-5z" stroke-width="3"></path><g id="node_text3" fill="black"><text id="kity_text_117" text-rendering="inherit" font-size="12" dy=".8em" y="335.7000000476837" x="1475.5">Qt</text></g></g><g id="minder_node5"><g id="node_expander6" style="cursor: pointer;"><path id="kity_path_267" fill="white" stroke="gray" d="M1465.5,447.5A6,6,0,1,1,1453.5,447.5A6,6,0,1,1,1465.5,447.5"></path><path id="kity_path_268" fill="none" stroke="gray" d="M1455,447.5L1464,447.5"></path></g><path id="node_outline7" fill="none" stroke="none" d="M1470.5,431.5h60a5,5,0,0,1,5,5v22a5,5,0,0,1,-5,5h-60a5,5,0,0,1,-5,-5v-22a5,5,0,0,1,5,-5z"></path><g id="node_text7" fill="black"><text id="kity_text_125" text-rendering="inherit" font-size="12" dy=".8em" y="439.7000000476837" x="1475.5">STL</text></g><a id="kity_a_203" xmlns:xlink="http://www.w3.org/1999/xlink" xlink:href="http://net.pku.edu.cn/~yhf/UsingSTL.htm" target="_blank" xlink:title="三十分钟掌握STL(http://net.pku.edu.cn/~yhf/UsingSTL.htm)" style="cursor: pointer;"><path id="kity_path_205" fill="rgba(255, 255, 255, 0)" stroke="none" d="M1505.5,436.5h16a4,4,0,0,1,4,4v14a4,4,0,0,1,-4,4h-16a4,4,0,0,1,-4,-4v-14a4,4,0,0,1,4,-4z"></path><path id="kity_path_204" fill="#666" stroke="none" d="M1520.114,452.724h-1.278c-1.668,0,-3.07,-1.07,-3.599,-2.556h4.877c0.707,0,1.278,-0.571,1.278,-1.278V446.334c0,-0.707,-0.571,-1.278,-1.278,-1.278h-4.877C1515.766,443.571,1517.168,442.5,1518.836,442.5h1.278c2.116,0,3.834,1.716,3.834,3.834V448.89C1523.948,451.008,1522.23,452.724,1520.114,452.724zM1508.612,447.612c0,-0.707,0.573,-1.278,1.278,-1.278h7.668c0.707,0,1.278,0.571,1.278,1.278S1518.265,448.89,1517.558,448.89H1509.89C1509.185,448.89,1508.612,448.319,1508.612,447.612zM1506.056,446.334V448.89c0,0.707,0.573,1.278,1.278,1.278h4.877c-0.528,1.486,-1.932,2.556,-3.599,2.556H1507.334C1505.216,452.724,1503.5,451.008,1503.5,448.89V446.334C1503.5,444.216,1505.216,442.5,1507.334,442.5h1.278c1.667,0,3.071,1.071,3.599,2.556H1507.334C1506.629,445.056,1506.056,445.627,1506.056,446.334z"></path></a></g><g id="minder_node6"><g id="node_expander3" style="cursor: pointer;" display="none"><path id="kity_path_258" fill="white" stroke="gray" d="M1575.5,395.5A6,6,0,1,1,1563.5,395.5A6,6,0,1,1,1575.5,395.5"></path><path id="kity_path_259" fill="none" stroke="gray"></path></g><path id="node_outline4" fill="none" stroke="none" d="M1580.5,384.5h60a5,5,0,0,1,5,5v12a5,5,0,0,1,-5,5h-60a5,5,0,0,1,-5,-5v-12a5,5,0,0,1,5,-5z"></path><g id="node_text4" fill="black"><text id="kity_text_119" text-rendering="inherit" font-size="12" dy=".8em" y="387.7000000476837" x="1585.5">基本容器</text></g></g><g id="minder_node7"><g id="node_expander4" style="cursor: pointer;" display="none"><path id="kity_path_261" fill="white" stroke="gray" d="M1575.5,447.5A6,6,0,1,1,1563.5,447.5A6,6,0,1,1,1575.5,447.5"></path><path id="kity_path_262" fill="none" stroke="gray"></path></g><path id="node_outline5" fill="none" stroke="none" d="M1580.5,436.5h48a5,5,0,0,1,5,5v12a5,5,0,0,1,-5,5h-48a5,5,0,0,1,-5,-5v-12a5,5,0,0,1,5,-5z"></path><g id="node_text5" fill="black"><text id="kity_text_121" text-rendering="inherit" font-size="12" dy=".8em" y="439.7000000476837" x="1585.5">迭代器</text></g></g><g id="minder_node8"><g id="node_expander5" style="cursor: pointer;" display="none"><path id="kity_path_264" fill="white" stroke="gray" d="M1575.5,499.5A6,6,0,1,1,1563.5,499.5A6,6,0,1,1,1575.5,499.5"></path><path id="kity_path_265" fill="none" stroke="gray"></path></g><path id="node_outline6" fill="none" stroke="none" d="M1580.5,488.5h83a5,5,0,0,1,5,5v12a5,5,0,0,1,-5,5h-83a5,5,0,0,1,-5,-5v-12a5,5,0,0,1,5,-5z"></path><g id="node_text6" fill="black"><text id="kity_text_123" text-rendering="inherit" font-size="12" dy=".8em" y="491.7000000476837" x="1585.5">算法（函数）</text></g></g><g id="minder_node9"><g id="node_expander7" style="cursor: pointer;" display="none"><path id="kity_path_270" fill="white" stroke="gray" d="M1465.5,551.5A6,6,0,1,1,1453.5,551.5A6,6,0,1,1,1465.5,551.5"></path><path id="kity_path_271" fill="none" stroke="gray"></path></g><path id="node_outline8" fill="none" stroke="none" d="M1470.5,540.5h108a5,5,0,0,1,5,5v12a5,5,0,0,1,-5,5h-108a5,5,0,0,1,-5,-5v-12a5,5,0,0,1,5,-5z"></path><g id="node_text8" fill="black"><text id="kity_text_127" text-rendering="inherit" font-size="12" dy=".8em" y="543.7000000476837" x="1475.5">封装、继承、多态</text></g></g><g id="minder_node10"><g id="node_expander12" style="cursor: pointer;"><path id="kity_path_285" fill="white" stroke="gray" d="M1354.5,639.5A6,6,0,1,1,1342.5,639.5A6,6,0,1,1,1354.5,639.5"></path><path id="kity_path_286" fill="none" stroke="gray" d="M1344,639.5L1353,639.5"></path></g><path id="node_outline13" fill="rgb(238, 243, 246)" stroke="rgb(115, 161, 191)" d="M1358.5,626.5h81a3,3,0,0,1,3,3v20a3,3,0,0,1,-3,3h-81a3,3,0,0,1,-3,-3v-20a3,3,0,0,1,3,-3z" stroke-width="1"></path><g id="node_text13" fill="black"><text id="kity_text_137" text-rendering="inherit" font-size="14" dy=".8em" y="630.4000000953674" x="1375.5">Python</text></g></g><g id="minder_node11"><g id="node_expander9" style="cursor: pointer;" display="none"><path id="kity_path_276" fill="white" stroke="gray" d="M1482.5,613.5A6,6,0,1,1,1470.5,613.5A6,6,0,1,1,1482.5,613.5"></path><path id="kity_path_277" fill="none" stroke="gray"></path></g><path id="node_outline10" fill="none" stroke="none" d="M1487.5,602.5h60a5,5,0,0,1,5,5v12a5,5,0,0,1,-5,5h-60a5,5,0,0,1,-5,-5v-12a5,5,0,0,1,5,-5z"></path><g id="node_text10" fill="black"><text id="kity_text_131" text-rendering="inherit" font-size="12" dy=".8em" y="605.7000000476837" x="1492.5">基础知识</text></g></g><g id="minder_node12"><g id="node_expander11" style="cursor: pointer;"><path id="kity_path_282" fill="white" stroke="gray" d="M1482.5,665.5A6,6,0,1,1,1470.5,665.5A6,6,0,1,1,1482.5,665.5"></path><path id="kity_path_283" fill="none" stroke="gray" d="M1472,665.5L1481,665.5"></path></g><path id="node_outline12" fill="none" stroke="none" d="M1487.5,654.5h35a5,5,0,0,1,5,5v12a5,5,0,0,1,-5,5h-35a5,5,0,0,1,-5,-5v-12a5,5,0,0,1,5,-5z"></path><g id="node_text12" fill="black"><text id="kity_text_135" text-rendering="inherit" font-size="12" dy=".8em" y="657.7000000476837" x="1492.5">应用</text></g></g><g id="minder_node13"><g id="node_expander10" style="cursor: pointer;" display="none"><path id="kity_path_279" fill="white" stroke="gray" d="M1567.5,665.5A6,6,0,1,1,1555.5,665.5A6,6,0,1,1,1567.5,665.5"></path><path id="kity_path_280" fill="none" stroke="gray"></path></g><path id="node_outline11" fill="none" stroke="none" d="M1572.5,654.5h36a5,5,0,0,1,5,5v12a5,5,0,0,1,-5,5h-36a5,5,0,0,1,-5,-5v-12a5,5,0,0,1,5,-5z"></path><g id="node_text11" fill="black"><text id="kity_text_133" text-rendering="inherit" font-size="12" dy=".8em" y="657.7000000476837" x="1577.5">爬虫</text></g></g><g id="minder_node14"><g id="node_expander14" style="cursor: pointer;"><path id="kity_path_291" fill="white" stroke="gray" d="M1354.5,729.5A6,6,0,1,1,1342.5,729.5A6,6,0,1,1,1354.5,729.5"></path><path id="kity_path_292" fill="none" stroke="gray" d="M1344,729.5L1353,729.5"></path></g><path id="node_outline15" fill="rgb(238, 243, 246)" stroke="rgb(115, 161, 191)" d="M1358.5,716.5h70a3,3,0,0,1,3,3v20a3,3,0,0,1,-3,3h-70a3,3,0,0,1,-3,-3v-20a3,3,0,0,1,3,-3z" stroke-width="1"></path><g id="node_text15" fill="black"><text id="kity_text_141" text-rendering="inherit" font-size="14" dy=".8em" y="720.4000000953674" x="1375.5">Linux</text></g></g><g id="minder_node15"><g id="node_expander13" style="cursor: pointer;" display="none"><path id="kity_path_288" fill="white" stroke="gray" d="M1471.5,729.5A6,6,0,1,1,1459.5,729.5A6,6,0,1,1,1471.5,729.5"></path><path id="kity_path_289" fill="none" stroke="gray"></path></g><path id="node_outline14" fill="none" stroke="none" d="M1476.5,718.5h60a5,5,0,0,1,5,5v12a5,5,0,0,1,-5,5h-60a5,5,0,0,1,-5,-5v-12a5,5,0,0,1,5,-5z"></path><g id="node_text14" fill="black"><text id="kity_text_139" text-rendering="inherit" font-size="12" dy=".8em" y="721.7000000476837" x="1481.5">基础知识</text></g></g><g id="minder_node16"><g id="node_expander18" style="cursor: pointer;"><path id="kity_path_303" fill="white" stroke="gray" d="M1354.5,845.5A6,6,0,1,1,1342.5,845.5A6,6,0,1,1,1354.5,845.5"></path><path id="kity_path_304" fill="none" stroke="gray" d="M1344,845.5L1353,845.5"></path></g><path id="node_outline19" fill="rgb(238, 243, 246)" stroke="rgb(115, 161, 191)" d="M1358.5,832.5h108a3,3,0,0,1,3,3v20a3,3,0,0,1,-3,3h-108a3,3,0,0,1,-3,-3v-20a3,3,0,0,1,3,-3z" stroke-width="1"></path><g id="node_text19" fill="black"><text id="kity_text_149" text-rendering="inherit" font-size="14" dy=".8em" y="836.4000000953674" x="1375.5">OpenResty</text></g></g><g id="minder_node17"><g id="node_expander15" style="cursor: pointer;" display="none"><path id="kity_path_294" fill="white" stroke="gray" d="M1509.5,793.5A6,6,0,1,1,1497.5,793.5A6,6,0,1,1,1509.5,793.5"></path><path id="kity_path_295" fill="none" stroke="gray"></path></g><path id="node_outline16" fill="none" stroke="none" d="M1514.5,782.5h60a5,5,0,0,1,5,5v12a5,5,0,0,1,-5,5h-60a5,5,0,0,1,-5,-5v-12a5,5,0,0,1,5,-5z"></path><g id="node_text16" fill="black"><text id="kity_text_143" text-rendering="inherit" font-size="12" dy=".8em" y="785.7000000476837" x="1519.5">增加请求</text></g></g><g id="minder_node18"><g id="node_expander16" style="cursor: pointer;" display="none"><path id="kity_path_297" fill="white" stroke="gray" d="M1509.5,845.5A6,6,0,1,1,1497.5,845.5A6,6,0,1,1,1509.5,845.5"></path><path id="kity_path_298" fill="none" stroke="gray"></path></g><path id="node_outline17" fill="none" stroke="none" d="M1514.5,834.5h72a5,5,0,0,1,5,5v12a5,5,0,0,1,-5,5h-72a5,5,0,0,1,-5,-5v-12a5,5,0,0,1,5,-5z"></path><g id="node_text17" fill="black"><text id="kity_text_145" text-rendering="inherit" font-size="12" dy=".8em" y="837.7000000476837" x="1519.5">文件服务器</text></g></g><g id="minder_node19"><g id="node_expander17" style="cursor: pointer;" display="none"><path id="kity_path_300" fill="white" stroke="gray" d="M1509.5,897.5A6,6,0,1,1,1497.5,897.5A6,6,0,1,1,1509.5,897.5"></path><path id="kity_path_301" fill="none" stroke="gray"></path></g><path id="node_outline18" fill="none" stroke="none" d="M1514.5,886.5h77a5,5,0,0,1,5,5v12a5,5,0,0,1,-5,5h-77a5,5,0,0,1,-5,-5v-12a5,5,0,0,1,5,-5z"></path><g id="node_text18" fill="black"><text id="kity_text_147" text-rendering="inherit" font-size="12" dy=".8em" y="889.7000000476837" x="1519.5">连接MySQL</text></g></g><g id="minder_node20"><g id="node_expander21" style="cursor: pointer;"><path id="kity_path_312" fill="white" stroke="gray" d="M984.5,325.5A6,6,0,1,1,972.5,325.5A6,6,0,1,1,984.5,325.5"></path><path id="kity_path_313" fill="none" stroke="gray" d="M974,325.5L983,325.5"></path></g><path id="node_outline22" fill="rgb(238, 243, 246)" stroke="rgb(115, 161, 191)" d="M891.5,312.5h77a3,3,0,0,1,3,3v20a3,3,0,0,1,-3,3h-77a3,3,0,0,1,-3,-3v-20a3,3,0,0,1,3,-3z" stroke-width="1"></path><g id="node_text22" fill="black"><text id="kity_text_155" text-rendering="inherit" font-size="14" dy=".8em" y="316.40000009536743" x="908.5">数据库</text></g></g><g id="minder_node21"><g id="node_expander19" style="cursor: pointer;" display="none"><path id="kity_path_306" fill="white" stroke="gray" d="M860.5,299.5A6,6,0,1,1,848.5,299.5A6,6,0,1,1,860.5,299.5"></path><path id="kity_path_307" fill="none" stroke="gray"></path></g><path id="node_outline20" fill="none" stroke="none" d="M791.5,288.5h52a5,5,0,0,1,5,5v12a5,5,0,0,1,-5,5h-52a5,5,0,0,1,-5,-5v-12a5,5,0,0,1,5,-5z"></path><g id="node_text20" fill="black"><text id="kity_text_151" text-rendering="inherit" font-size="12" dy=".8em" y="291.7000000476837" x="796.5">MySQL</text></g></g><g id="minder_node22"><g id="node_expander20" style="cursor: pointer;" display="none"><path id="kity_path_309" fill="white" stroke="gray" d="M860.5,351.5A6,6,0,1,1,848.5,351.5A6,6,0,1,1,860.5,351.5"></path><path id="kity_path_310" fill="none" stroke="gray"></path></g><path id="node_outline21" fill="none" stroke="none" d="M796.5,340.5h47a5,5,0,0,1,5,5v12a5,5,0,0,1,-5,5h-47a5,5,0,0,1,-5,-5v-12a5,5,0,0,1,5,-5z"></path><g id="node_text21" fill="black"><text id="kity_text_153" text-rendering="inherit" font-size="12" dy=".8em" y="343.7000000476837" x="801.5">Oracle</text></g></g><g id="minder_node23"><g id="node_expander24" style="cursor: pointer;"><path id="kity_path_321" fill="white" stroke="gray" d="M984.5,439.5A6,6,0,1,1,972.5,439.5A6,6,0,1,1,984.5,439.5"></path><path id="kity_path_322" fill="none" stroke="gray" d="M974,439.5L983,439.5"></path></g><path id="node_outline25" fill="rgb(238, 243, 246)" stroke="rgb(115, 161, 191)" d="M891.5,426.5h77a3,3,0,0,1,3,3v20a3,3,0,0,1,-3,3h-77a3,3,0,0,1,-3,-3v-20a3,3,0,0,1,3,-3z" stroke-width="1"></path><g id="node_text25" fill="black"><text id="kity_text_161" text-rendering="inherit" font-size="14" dy=".8em" y="430.40000009536743" x="908.5">嵌入式</text></g></g><g id="minder_node24"><g id="node_expander22" style="cursor: pointer;" display="none"><path id="kity_path_315" fill="white" stroke="gray" d="M860.5,413.5A6,6,0,1,1,848.5,413.5A6,6,0,1,1,860.5,413.5"></path><path id="kity_path_316" fill="none" stroke="gray"></path></g><path id="node_outline23" fill="none" stroke="none" d="M771.5,402.5h72a5,5,0,0,1,5,5v12a5,5,0,0,1,-5,5h-72a5,5,0,0,1,-5,-5v-12a5,5,0,0,1,5,-5z"></path><g id="node_text23" fill="black"><text id="kity_text_157" text-rendering="inherit" font-size="12" dy=".8em" y="405.7000000476837" x="776.5">交叉编译链</text></g></g><g id="minder_node25"><g id="node_expander23" style="cursor: pointer;" display="none"><path id="kity_path_318" fill="white" stroke="gray" d="M860.5,465.5A6,6,0,1,1,848.5,465.5A6,6,0,1,1,860.5,465.5"></path><path id="kity_path_319" fill="none" stroke="gray"></path></g><path id="node_outline24" fill="none" stroke="none" d="M795.5,454.5h48a5,5,0,0,1,5,5v12a5,5,0,0,1,-5,5h-48a5,5,0,0,1,-5,-5v-12a5,5,0,0,1,5,-5z"></path><g id="node_text24" fill="black"><text id="kity_text_159" text-rendering="inherit" font-size="12" dy=".8em" y="457.7000000476837" x="800.5">应用层</text></g></g><g id="minder_node26"><g id="node_expander42" style="cursor: pointer;"><path id="kity_path_375" fill="white" stroke="gray" d="M984.5,871.5A6,6,0,1,1,972.5,871.5A6,6,0,1,1,984.5,871.5"></path><path id="kity_path_376" fill="none" stroke="gray" d="M974,871.5L983,871.5"></path></g><path id="node_outline43" fill="rgb(238, 243, 246)" stroke="rgb(115, 161, 191)" d="M848.5,854.5h120a3,3,0,0,1,3,3v28a3,3,0,0,1,-3,3h-120a3,3,0,0,1,-3,-3v-28a3,3,0,0,1,3,-3z" stroke-width="1"></path><g id="node_text43" fill="black"><text id="kity_text_202" text-rendering="inherit" font-size="14" dy=".8em" y="862.4000000953674" x="865.5">设计模式</text></g><a id="kity_a_206" xmlns:xlink="http://www.w3.org/1999/xlink" xlink:href="https://github.com/CyC2018/CS-Notes/blob/master/docs/notes/%E8%AE%BE%E8%AE%A1%E6%A8%A1%E5%BC%8F.md#5-%E7%94%9F%E6%88%90%E5%99%A8builder" target="_blank" xlink:title="https://github.com/CyC2018/CS-Notes/blob/master/docs/notes/%E8%AE%BE%E8%AE%A1%E6%A8%A1%E5%BC%8F.md#5-%E7%94%9F%E6%88%90%E5%99%A8builder" style="cursor: pointer;"><path id="kity_path_208" fill="rgba(255, 255, 255, 0)" stroke="none" d="M931.5,860.5h16a4,4,0,0,1,4,4v14a4,4,0,0,1,-4,4h-16a4,4,0,0,1,-4,-4v-14a4,4,0,0,1,4,-4z"></path><path id="kity_path_207" fill="#666" stroke="none" d="M946.114,876.724h-1.278c-1.668,0,-3.07,-1.07,-3.599,-2.556h4.877c0.707,0,1.278,-0.571,1.278,-1.278V870.334c0,-0.707,-0.571,-1.278,-1.278,-1.278h-4.877C941.766,867.571,943.168,866.5,944.836,866.5h1.278c2.116,0,3.834,1.716,3.834,3.834V872.89C949.948,875.008,948.23,876.724,946.114,876.724zM934.612,871.612c0,-0.707,0.573,-1.278,1.278,-1.278h7.668c0.707,0,1.278,0.571,1.278,1.278S944.265,872.89,943.558,872.89H935.89C935.185,872.89,934.612,872.319,934.612,871.612zM932.056,870.334V872.89c0,0.707,0.573,1.278,1.278,1.278h4.877c-0.528,1.486,-1.932,2.556,-3.599,2.556H933.334C931.216,876.724,929.5,875.008,929.5,872.89V870.334C929.5,868.216,931.216,866.5,933.334,866.5h1.278c1.667,0,3.071,1.071,3.599,2.556H933.334C932.629,869.056,932.056,869.627,932.056,870.334z"></path></a></g><g id="minder_node27"><g id="node_expander37" style="cursor: pointer;"><path id="kity_path_360" fill="white" stroke="gray" d="M817.5,710.5A6,6,0,1,1,805.5,710.5A6,6,0,1,1,817.5,710.5"></path><path id="kity_path_361" fill="none" stroke="gray" d="M807,710.5L816,710.5"></path></g><path id="node_outline38" fill="none" stroke="none" d="M765.5,699.5h35a5,5,0,0,1,5,5v12a5,5,0,0,1,-5,5h-35a5,5,0,0,1,-5,-5v-12a5,5,0,0,1,5,-5z"></path><g id="node_text38" fill="black"><text id="kity_text_190" text-rendering="inherit" font-size="12" dy=".8em" y="702.7000000476837" x="770.5">单例</text></g></g><g id="minder_node28"><g id="node_expander25" style="cursor: pointer;" display="none"><path id="kity_path_324" fill="white" stroke="gray" d="M732.5,528.5A6,6,0,1,1,720.5,528.5A6,6,0,1,1,732.5,528.5"></path><path id="kity_path_325" fill="none" stroke="gray"></path></g><path id="node_outline26" fill="none" stroke="none" d="M416.5,517.5h299a5,5,0,0,1,5,5v12a5,5,0,0,1,-5,5h-299a5,5,0,0,1,-5,-5v-12a5,5,0,0,1,5,-5z"></path><g id="node_text26" fill="black"><text id="kity_text_163" text-rendering="inherit" font-size="12" dy=".8em" y="520.7000000476837" x="421.5">确保一个类只有一个实例，并提供该实例的全局访问点</text></g></g><g id="minder_node29"><g id="node_expander28" style="cursor: pointer;"><path id="kity_path_333" fill="white" stroke="gray" d="M732.5,606.5A6,6,0,1,1,720.5,606.5A6,6,0,1,1,732.5,606.5"></path><path id="kity_path_334" fill="none" stroke="gray" d="M722,606.5L731,606.5"></path></g><path id="node_outline29" fill="none" stroke="none" d="M602.5,595.5h113a5,5,0,0,1,5,5v12a5,5,0,0,1,-5,5h-113a5,5,0,0,1,-5,-5v-12a5,5,0,0,1,5,-5z"></path><g id="node_text29" fill="black"><text id="kity_text_169" text-rendering="inherit" font-size="12" dy=".8em" y="598.7000000476837" x="607.5">懒汉式-线程不安全</text></g></g><g id="minder_node30"><g id="node_expander26" style="cursor: pointer;" display="none"><path id="kity_path_327" fill="white" stroke="gray" d="M569.5,580.5A6,6,0,1,1,557.5,580.5A6,6,0,1,1,569.5,580.5"></path><path id="kity_path_328" fill="none" stroke="gray"></path></g><path id="node_outline27" fill="none" stroke="none" d="M336.5,569.5h216a5,5,0,0,1,5,5v12a5,5,0,0,1,-5,5h-216a5,5,0,0,1,-5,-5v-12a5,5,0,0,1,5,-5z"></path><g id="node_text27" fill="black"><text id="kity_text_165" text-rendering="inherit" font-size="12" dy=".8em" y="572.7000000476837" x="341.5">延迟实例化，多线程将导致实例化多次</text></g></g><g id="minder_node31"><g id="node_expander27" style="cursor: pointer;" display="none"><path id="kity_path_330" fill="white" stroke="gray" d="M569.5,632.5A6,6,0,1,1,557.5,632.5A6,6,0,1,1,569.5,632.5"></path><path id="kity_path_331" fill="none" stroke="gray"></path></g><path id="node_outline28" fill="none" stroke="none" d="M181.5,621.5h371a5,5,0,0,1,5,5v12a5,5,0,0,1,-5,5h-371a5,5,0,0,1,-5,-5v-12a5,5,0,0,1,5,-5z"></path><g id="node_text28" fill="black"><text id="kity_text_167" text-rendering="inherit" font-size="12" dy=".8em" y="624.7000000476837" x="186.5">if (uniqueInstance == null) {uniqueInstance = new Singleton();}</text></g></g><g id="minder_node32"><g id="node_expander31" style="cursor: pointer;"><path id="kity_path_342" fill="white" stroke="gray" d="M732.5,710.5A6,6,0,1,1,720.5,710.5A6,6,0,1,1,732.5,710.5"></path><path id="kity_path_343" fill="none" stroke="gray" d="M722,710.5L731,710.5"></path></g><path id="node_outline32" fill="none" stroke="none" d="M614.5,699.5h101a5,5,0,0,1,5,5v12a5,5,0,0,1,-5,5h-101a5,5,0,0,1,-5,-5v-12a5,5,0,0,1,5,-5z"></path><g id="node_text32" fill="black"><text id="kity_text_175" text-rendering="inherit" font-size="12" dy=".8em" y="702.7000000476837" x="619.5">饿汉式-线程安全</text></g></g><g id="minder_node33"><g id="node_expander29" style="cursor: pointer;" display="none"><path id="kity_path_336" fill="white" stroke="gray" d="M581.5,684.5A6,6,0,1,1,569.5,684.5A6,6,0,1,1,581.5,684.5"></path><path id="kity_path_337" fill="none" stroke="gray"></path></g><path id="node_outline30" fill="none" stroke="none" d="M264.5,673.5h300a5,5,0,0,1,5,5v12a5,5,0,0,1,-5,5h-300a5,5,0,0,1,-5,-5v-12a5,5,0,0,1,5,-5z"></path><g id="node_text30" fill="black"><text id="kity_text_171" text-rendering="inherit" font-size="12" dy=".8em" y="676.7000000476837" x="269.5">直接实例化，丢失了延迟实例化带来的节约资源的好处</text></g></g><g id="minder_node34"><g id="node_expander30" style="cursor: pointer;" display="none"><path id="kity_path_339" fill="white" stroke="gray" d="M581.5,736.5A6,6,0,1,1,569.5,736.5A6,6,0,1,1,581.5,736.5"></path><path id="kity_path_340" fill="none" stroke="gray"></path></g><path id="node_outline31" fill="none" stroke="none" d="M222.5,725.5h342a5,5,0,0,1,5,5v12a5,5,0,0,1,-5,5h-342a5,5,0,0,1,-5,-5v-12a5,5,0,0,1,5,-5z"></path><g id="node_text31" fill="black"><text id="kity_text_173" text-rendering="inherit" font-size="12" dy=".8em" y="728.7000000476837" x="227.5">private static Singleton uniqueInstance = new Singleton();</text></g></g><g id="minder_node35"><g id="node_expander33" style="cursor: pointer;"><path id="kity_path_348" fill="white" stroke="gray" d="M732.5,788.5A6,6,0,1,1,720.5,788.5A6,6,0,1,1,732.5,788.5"></path><path id="kity_path_349" fill="none" stroke="gray" d="M722,788.5L731,788.5"></path></g><path id="node_outline34" fill="none" stroke="none" d="M614.5,777.5h101a5,5,0,0,1,5,5v12a5,5,0,0,1,-5,5h-101a5,5,0,0,1,-5,-5v-12a5,5,0,0,1,5,-5z"></path><g id="node_text34" fill="black"><text id="kity_text_179" text-rendering="inherit" font-size="12" dy=".8em" y="780.7000000476837" x="619.5">懒汉式-线程安全</text></g></g><g id="minder_node36"><g id="node_expander32" style="cursor: pointer;" display="none"><path id="kity_path_345" fill="white" stroke="gray" d="M581.5,788.5A6,6,0,1,1,569.5,788.5A6,6,0,1,1,581.5,788.5"></path><path id="kity_path_346" fill="none" stroke="gray"></path></g><path id="node_outline33" fill="none" stroke="none" d="M337.5,777.5h227a5,5,0,0,1,5,5v12a5,5,0,0,1,-5,5h-227a5,5,0,0,1,-5,-5v-12a5,5,0,0,1,5,-5z"></path><g id="node_text33" fill="black"><text id="kity_text_177" text-rendering="inherit" font-size="12" dy=".8em" y="780.7000000476837" x="342.5">实例化时加锁，有性能问题，不推荐使用</text></g></g><g id="minder_node37"><g id="node_expander36" style="cursor: pointer;"><path id="kity_path_357" fill="white" stroke="gray" d="M732.5,893.5A6,6,0,1,1,720.5,893.5A6,6,0,1,1,732.5,893.5"></path><path id="kity_path_358" fill="none" stroke="gray" d="M722,893.5L731,893.5"></path></g><path id="node_outline37" fill="none" stroke="none" d="M590.5,882.5h125a5,5,0,0,1,5,5v12a5,5,0,0,1,-5,5h-125a5,5,0,0,1,-5,-5v-12a5,5,0,0,1,5,-5z"></path><g id="node_text37" fill="black"><text id="kity_text_188" text-rendering="inherit" font-size="12" dy=".8em" y="885.7000000476837" x="595.5">双重校验锁-线程安全</text></g></g><g id="minder_node38"><g id="node_expander34" style="cursor: pointer;" display="none"><path id="kity_path_351" fill="white" stroke="gray" d="M557.5,840.5A6,6,0,1,1,545.5,840.5A6,6,0,1,1,557.5,840.5"></path><path id="kity_path_352" fill="none" stroke="gray"></path></g><path id="node_outline35" fill="none" stroke="none" d="M25.5,829.5h515a5,5,0,0,1,5,5v12a5,5,0,0,1,-5,5h-515a5,5,0,0,1,-5,-5v-12a5,5,0,0,1,5,-5z"></path><g id="node_text35" fill="black"><text id="kity_text_181" text-rendering="inherit" font-size="12" dy=".8em" y="832.7000000476837" x="30.5">先判断 uniqueInstance 是否已经被实例化，如果没有被实例化，那么才对实例化语句进行加锁</text></g></g><g id="minder_node39"><g id="node_expander35" style="cursor: pointer;" display="none"><path id="kity_path_354" fill="white" stroke="gray" d="M557.5,919.5A6,6,0,1,1,545.5,919.5A6,6,0,1,1,557.5,919.5"></path><path id="kity_path_355" fill="none" stroke="gray"></path></g><path id="node_outline36" fill="none" stroke="none" d="M321.5,881.5h219a5,5,0,0,1,5,5v66a5,5,0,0,1,-5,5h-219a5,5,0,0,1,-5,-5v-66a5,5,0,0,1,5,-5z"></path><g id="node_text36" fill="black"><text id="kity_text_183" text-rendering="inherit" font-size="12" dy=".8em" y="884.7000000476837" x="326.5">if (uniqueInstance == null) {</text><text id="kity_text_184" text-rendering="inherit" font-size="12" dy=".8em" y="902.7000000476837" x="326.5">	        synchronized (Singleton.class) {</text><text id="kity_text_185" text-rendering="inherit" font-size="12" dy=".8em" y="920.7000000476837" x="326.5">	            if (uniqueInstance == null) {</text><text id="kity_text_186" text-rendering="inherit" font-size="12" dy=".8em" y="938.7000000476837" x="326.5">	                uniqueInstance = new Singleton();}}}</text></g></g><g id="minder_node40"><g id="node_expander41" style="cursor: pointer;"><path id="kity_path_372" fill="white" stroke="gray" d="M817.5,1032.5A6,6,0,1,1,805.5,1032.5A6,6,0,1,1,817.5,1032.5"></path><path id="kity_path_373" fill="none" stroke="gray" d="M807,1032.5L816,1032.5"></path></g><path id="node_outline42" fill="none" stroke="none" d="M574.5,1021.5h226a5,5,0,0,1,5,5v12a5,5,0,0,1,-5,5h-226a5,5,0,0,1,-5,-5v-12a5,5,0,0,1,5,-5z"></path><g id="node_text42" fill="black"><text id="kity_text_200" text-rendering="inherit" font-size="12" dy=".8em" y="1024.7000000476837" x="579.5">工厂模式（简单工厂、工厂、抽象工厂）</text></g></g><g id="minder_node41"><g id="node_expander38" style="cursor: pointer;" display="none"><path id="kity_path_363" fill="white" stroke="gray" d="M541.5,997.5A6,6,0,1,1,529.5,997.5A6,6,0,1,1,541.5,997.5"></path><path id="kity_path_364" fill="none" stroke="gray"></path></g><path id="node_outline39" fill="none" stroke="none" d="M117.5,986.5h407a5,5,0,0,1,5,5v12a5,5,0,0,1,-5,5h-407a5,5,0,0,1,-5,-5v-12a5,5,0,0,1,5,-5z"></path><g id="node_text39" fill="black"><text id="kity_text_192" text-rendering="inherit" font-size="12" dy=".8em" y="989.7000000476837" x="122.5">在创建一个对象时不向客户暴露内部细节，并提供一个创建对象的通用接口</text></g></g><g id="minder_node42"><g id="node_expander40" style="cursor: pointer;"><path id="kity_path_369" fill="white" stroke="gray" d="M541.5,1067.5A6,6,0,1,1,529.5,1067.5A6,6,0,1,1,541.5,1067.5"></path><path id="kity_path_370" fill="none" stroke="gray" d="M531,1067.5L540,1067.5"></path></g><path id="node_outline41" fill="none" stroke="none" d="M464.5,1056.5h60a5,5,0,0,1,5,5v12a5,5,0,0,1,-5,5h-60a5,5,0,0,1,-5,-5v-12a5,5,0,0,1,5,-5z"></path><g id="node_text41" fill="black"><text id="kity_text_198" text-rendering="inherit" font-size="12" dy=".8em" y="1059.7000000476837" x="469.5">分支主题</text></g></g><g id="minder_node43"><g id="node_expander39" style="cursor: pointer;" display="none"><path id="kity_path_366" fill="white" stroke="gray" d="M431.5,1067.5A6,6,0,1,1,419.5,1067.5A6,6,0,1,1,431.5,1067.5"></path><path id="kity_path_367" fill="none" stroke="gray"></path></g><path id="node_outline40" fill="none" stroke="none" d="M138.5,1038.5h276a5,5,0,0,1,5,5v48a5,5,0,0,1,-5,5h-276a5,5,0,0,1,-5,-5v-48a5,5,0,0,1,5,-5z"></path><g id="node_text40" fill="black"><text id="kity_text_194" text-rendering="inherit" font-size="12" dy=".8em" y="1041.7000000476837" x="143.5">简单工厂把实例化的操作单独放到一个类中，</text><text id="kity_text_195" text-rendering="inherit" font-size="12" dy=".8em" y="1059.7000000476837" x="143.5">这个类就成为简单工厂类，</text><text id="kity_text_196" text-rendering="inherit" font-size="12" dy=".8em" y="1077.7000000476837" x="143.5">让简单工厂类来决定应该用哪个具体子类来实例化</text></g></g><g id="minder_node44"><g id="node_expander43" style="cursor: pointer;" display="none"><path id="kity_path_383" fill="white" stroke="gray" d="M1575.5,31.5A6,6,0,1,1,1563.5,31.5A6,6,0,1,1,1575.5,31.5"></path><path id="kity_path_384" fill="none" stroke="gray"></path></g><path id="node_outline44" fill="none" stroke="none" d="M1580.5,20.5h96a5,5,0,0,1,5,5v12a5,5,0,0,1,-5,5h-96a5,5,0,0,1,-5,-5v-12a5,5,0,0,1,5,-5z" stroke-width="3"></path><g id="node_text44" fill="black"><text id="kity_text_380" text-rendering="inherit" font-size="12" dy=".8em" y="23.700000047683716" x="1585.5">变量和基本类型</text></g></g><g id="minder_node45"><g id="node_expander44" style="cursor: pointer;" display="none"><path id="kity_path_391" fill="white" stroke="gray" d="M1575.5,83.5A6,6,0,1,1,1563.5,83.5A6,6,0,1,1,1575.5,83.5"></path><path id="kity_path_392" fill="none" stroke="gray"></path></g><path id="node_outline45" fill="none" stroke="none" d="M1580.5,72.5h120a5,5,0,0,1,5,5v12a5,5,0,0,1,-5,5h-120a5,5,0,0,1,-5,-5v-12a5,5,0,0,1,5,-5z" stroke-width="3"></path><g id="node_text45" fill="black"><text id="kity_text_388" text-rendering="inherit" font-size="12" dy=".8em" y="75.70000004768372" x="1585.5">字符串、向量和数组</text></g></g><g id="minder_node46"><g id="node_expander45" style="cursor: pointer;" display="none"><path id="kity_path_399" fill="white" stroke="gray" d="M1575.5,135.5A6,6,0,1,1,1563.5,135.5A6,6,0,1,1,1575.5,135.5"></path><path id="kity_path_400" fill="none" stroke="gray"></path></g><path id="node_outline46" fill="none" stroke="none" d="M1580.5,124.5h48a5,5,0,0,1,5,5v12a5,5,0,0,1,-5,5h-48a5,5,0,0,1,-5,-5v-12a5,5,0,0,1,5,-5z" stroke-width="3"></path><g id="node_text46" fill="black"><text id="kity_text_396" text-rendering="inherit" font-size="12" dy=".8em" y="127.70000004768372" x="1585.5">表达式</text></g></g><g id="minder_node47"><g id="node_expander46" style="cursor: pointer;" display="none"><path id="kity_path_407" fill="white" stroke="gray" d="M1575.5,187.5A6,6,0,1,1,1563.5,187.5A6,6,0,1,1,1575.5,187.5"></path><path id="kity_path_408" fill="none" stroke="gray"></path></g><path id="node_outline47" fill="none" stroke="none" d="M1580.5,176.5h35a5,5,0,0,1,5,5v12a5,5,0,0,1,-5,5h-35a5,5,0,0,1,-5,-5v-12a5,5,0,0,1,5,-5z" stroke-width="3"></path><g id="node_text47" fill="black"><text id="kity_text_404" text-rendering="inherit" font-size="12" dy=".8em" y="179.70000004768372" x="1585.5">语句</text></g></g><g id="minder_node48"><g id="node_expander47" style="cursor: pointer;" display="none"><path id="kity_path_415" fill="white" stroke="gray" d="M1575.5,239.5A6,6,0,1,1,1563.5,239.5A6,6,0,1,1,1575.5,239.5"></path><path id="kity_path_416" fill="none" stroke="gray"></path></g><path id="node_outline48" fill="none" stroke="none" d="M1580.5,228.5h35a5,5,0,0,1,5,5v12a5,5,0,0,1,-5,5h-35a5,5,0,0,1,-5,-5v-12a5,5,0,0,1,5,-5z" stroke-width="3"></path><g id="node_text48" fill="black"><text id="kity_text_412" text-rendering="inherit" font-size="12" dy=".8em" y="231.70000004768372" x="1585.5">函数</text></g></g><g id="minder_node49"><g id="node_expander48" style="cursor: pointer;" display="none"><path id="kity_path_423" fill="white" stroke="gray" d="M1575.5,291.5A6,6,0,1,1,1563.5,291.5A6,6,0,1,1,1575.5,291.5"></path><path id="kity_path_424" fill="none" stroke="gray"></path></g><path id="node_outline49" fill="none" stroke="none" d="M1580.5,280.5h24a5,5,0,0,1,5,5v12a5,5,0,0,1,-5,5h-24a5,5,0,0,1,-5,-5v-12a5,5,0,0,1,5,-5z" stroke-width="3"></path><g id="node_text49" fill="black"><text id="kity_text_420" text-rendering="inherit" font-size="12" dy=".8em" y="283.7000000476837" x="1585.5">类</text></g></g></g></g></svg>