<svg id="kity_svg_6" xmlns="http://www.w3.org/2000/svg" xmlns:xlink="http://www.w3.org/1999/xlink" version="1.1" width="1688" height="892" style="background: rgb(251, 251, 251); visibility: visible;" viewBox="0 0 1688 892"><defs id="kity_defs_7"><linearGradient id="kity_linearGradient_17" x1="0" y1="0" x2="0" y2="1"><stop id="kity_stop_18" offset="0" stop-color="rgb(255, 255, 255)"></stop><stop id="kity_stop_19" offset="1" stop-color="rgb(204, 204, 204)"></stop></linearGradient><marker id="kity_marker_2" orient="auto" refX="6" refY="0" viewBox="-7 -7 14 14" markerWidth="7" markerHeight="7" markerUnits="userSpaceOnUse"><path id="kity_path_3" fill="rgb(115, 161, 191)" stroke="none" d="M6,0A6,6,0,1,1,-6,0A6,6,0,1,1,6,0"></path></marker></defs><g id="kity_g_8"><g id="minder1" text-rendering="optimize-speed"><g id="minder_connect_group1"><path id="kity_path_31" fill="none" stroke="rgb(115, 161, 191)" stroke-width="1" d="M1163.5,373.5A190,212,0,0,1,1353.5,161.5"></path><path id="kity_path_33" fill="none" stroke="rgb(115, 161, 191)" stroke-width="1" d="M1425.5,161.5C1440.5,161.5,1440.5,45.5,1455.5,45.5L1535.5,45.5"></path><path id="kity_path_35" fill="none" stroke="rgb(115, 161, 191)" stroke-width="1" d="M1425.5,161.5C1440.5,161.5,1440.5,97.5,1455.5,97.5L1500.5,97.5"></path><path id="kity_path_37" fill="none" stroke="rgb(115, 161, 191)" stroke-width="1" d="M1425.5,161.5C1440.5,161.5,1440.5,206.5,1455.5,206.5L1535.5,206.5"></path><path id="kity_path_39" fill="none" stroke="rgb(115, 161, 191)" stroke-width="1" d="M1535.5,206.5C1550.5,206.5,1550.5,149.5,1565.5,149.5L1645.5,149.5"></path><path id="kity_path_41" fill="none" stroke="rgb(115, 161, 191)" stroke-width="1" d="M1535.5,206.5C1550.5,206.5,1550.5,201.5,1565.5,201.5L1633.5,201.5"></path><path id="kity_path_43" fill="none" stroke="rgb(115, 161, 191)" stroke-width="1" d="M1535.5,206.5C1550.5,206.5,1550.5,253.5,1565.5,253.5L1668.5,253.5"></path><path id="kity_path_45" fill="none" stroke="rgb(115, 161, 191)" stroke-width="1" d="M1425.5,161.5C1440.5,161.5,1440.5,305.5,1455.5,305.5L1583.5,305.5"></path><path id="kity_path_47" fill="none" stroke="rgb(115, 161, 191)" stroke-width="1" d="M1163.5,373.5A190,6,0,0,0,1353.5,379.5"></path><path id="kity_path_49" fill="none" stroke="rgb(115, 161, 191)" stroke-width="1" d="M1442.5,379.5C1457.5,379.5,1457.5,367.5,1472.5,367.5L1552.5,367.5"></path><path id="kity_path_51" fill="none" stroke="rgb(115, 161, 191)" stroke-width="1" d="M1442.5,379.5C1457.5,379.5,1457.5,419.5,1472.5,419.5L1527.5,419.5"></path><path id="kity_path_53" fill="none" stroke="rgb(115, 161, 191)" stroke-width="1" d="M1527.5,419.5C1542.5,419.5,1542.5,419.5,1557.5,419.5L1613.5,419.5"></path><path id="kity_path_55" fill="none" stroke="rgb(115, 161, 191)" stroke-width="1" d="M1163.5,373.5A190,96,0,0,0,1353.5,469.5"></path><path id="kity_path_57" fill="none" stroke="rgb(115, 161, 191)" stroke-width="1" d="M1431.5,469.5C1446.5,469.5,1446.5,483.5,1461.5,483.5L1541.5,483.5"></path><path id="kity_path_59" fill="none" stroke="rgb(115, 161, 191)" stroke-width="1" d="M1163.5,373.5A190,212,0,0,0,1353.5,585.5"></path><path id="kity_path_61" fill="none" stroke="rgb(115, 161, 191)" stroke-width="1" d="M1469.5,585.5C1484.5,585.5,1484.5,547.5,1499.5,547.5L1579.5,547.5"></path><path id="kity_path_63" fill="none" stroke="rgb(115, 161, 191)" stroke-width="1" d="M1469.5,585.5C1484.5,585.5,1484.5,599.5,1499.5,599.5L1591.5,599.5"></path><path id="kity_path_65" fill="none" stroke="rgb(115, 161, 191)" stroke-width="1" d="M1469.5,585.5C1484.5,585.5,1484.5,651.5,1499.5,651.5L1596.5,651.5"></path><path id="kity_path_67" fill="none" stroke="rgb(115, 161, 191)" stroke-width="1" d="M1163.5,373.5A190,275,0,0,0,973.5,98.5"></path><path id="kity_path_69" fill="none" stroke="rgb(115, 161, 191)" stroke-width="1" d="M888.5,98.5C873.5,98.5,873.5,86.5,858.5,86.5L786.5,86.5"></path><path id="kity_path_71" fill="none" stroke="rgb(115, 161, 191)" stroke-width="1" d="M888.5,98.5C873.5,98.5,873.5,138.5,858.5,138.5L791.5,138.5"></path><path id="kity_path_73" fill="none" stroke="rgb(115, 161, 191)" stroke-width="1" d="M1163.5,373.5A190,161,0,0,0,973.5,212.5"></path><path id="kity_path_75" fill="none" stroke="rgb(115, 161, 191)" stroke-width="1" d="M888.5,212.5C873.5,212.5,873.5,200.5,858.5,200.5L766.5,200.5"></path><path id="kity_path_77" fill="none" stroke="rgb(115, 161, 191)" stroke-width="1" d="M888.5,212.5C873.5,212.5,873.5,252.5,858.5,252.5L790.5,252.5"></path><path id="kity_path_79" fill="none" stroke="rgb(115, 161, 191)" stroke-width="1" d="M1163.5,373.5A190,271,0,0,1,973.5,644.5"></path><path id="kity_path_81" fill="none" stroke="rgb(115, 161, 191)" stroke-width="1" d="M845.5,644.5C830.5,644.5,830.5,497.5,815.5,497.5L760.5,497.5"></path><path id="kity_path_83" fill="none" stroke="rgb(115, 161, 191)" stroke-width="1" d="M760.5,497.5C745.5,497.5,745.5,315.5,730.5,315.5L411.5,315.5"></path><path id="kity_path_85" fill="none" stroke="rgb(115, 161, 191)" stroke-width="1" d="M760.5,497.5C745.5,497.5,745.5,393.5,730.5,393.5L597.5,393.5"></path><path id="kity_path_87" fill="none" stroke="rgb(115, 161, 191)" stroke-width="1" d="M597.5,393.5C582.5,393.5,582.5,367.5,567.5,367.5L331.5,367.5"></path><path id="kity_path_89" fill="none" stroke="rgb(115, 161, 191)" stroke-width="1" d="M597.5,393.5C582.5,393.5,582.5,419.5,567.5,419.5L176.5,419.5"></path><path id="kity_path_91" fill="none" stroke="rgb(115, 161, 191)" stroke-width="1" d="M760.5,497.5C745.5,497.5,745.5,497.5,730.5,497.5L609.5,497.5"></path><path id="kity_path_93" fill="none" stroke="rgb(115, 161, 191)" stroke-width="1" d="M609.5,497.5C594.5,497.5,594.5,471.5,579.5,471.5L259.5,471.5"></path><path id="kity_path_95" fill="none" stroke="rgb(115, 161, 191)" stroke-width="1" d="M609.5,497.5C594.5,497.5,594.5,523.5,579.5,523.5L217.5,523.5"></path><path id="kity_path_97" fill="none" stroke="rgb(115, 161, 191)" stroke-width="1" d="M760.5,497.5C745.5,497.5,745.5,575.5,730.5,575.5L609.5,575.5"></path><path id="kity_path_99" fill="none" stroke="rgb(115, 161, 191)" stroke-width="1" d="M609.5,575.5C594.5,575.5,594.5,575.5,579.5,575.5L332.5,575.5"></path><path id="kity_path_101" fill="none" stroke="rgb(115, 161, 191)" stroke-width="1" d="M760.5,497.5C745.5,497.5,745.5,680.5,730.5,680.5L585.5,680.5"></path><path id="kity_path_103" fill="none" stroke="rgb(115, 161, 191)" stroke-width="1" d="M585.5,680.5C570.5,680.5,570.5,627.5,555.5,627.5L20.5,627.5"></path><path id="kity_path_105" fill="none" stroke="rgb(115, 161, 191)" stroke-width="1" d="M585.5,680.5C570.5,680.5,570.5,733.5,555.5,733.5L316.5,733.5"></path><path id="kity_path_107" fill="none" stroke="rgb(115, 161, 191)" stroke-width="1" d="M845.5,644.5C830.5,644.5,830.5,819.5,815.5,819.5L569.5,819.5"></path><path id="kity_path_109" fill="none" stroke="rgb(115, 161, 191)" stroke-width="1" d="M569.5,819.5C554.5,819.5,554.5,784.5,539.5,784.5L112.5,784.5"></path><path id="kity_path_111" fill="none" stroke="rgb(115, 161, 191)" stroke-width="1" d="M569.5,819.5C554.5,819.5,554.5,854.5,539.5,854.5L459.5,854.5"></path><path id="kity_path_113" fill="none" stroke="rgb(115, 161, 191)" stroke-width="1" d="M459.5,854.5C444.5,854.5,444.5,872.5,429.5,872.5L133.5,872.5"></path></g><g id="minder_node1"><path id="node_outline1" fill="rgb(115, 161, 191)" stroke="rgb(115, 161, 191)" d="M1096.5,353.5h134a5,5,0,0,1,5,5v30a5,5,0,0,1,-5,5h-134a5,5,0,0,1,-5,-5v-30a5,5,0,0,1,5,-5z" stroke-width="3"></path><g id="node_text1" fill="white"><text id="kity_text_22" text-rendering="inherit" font-size="16" dy=".8em" y="363.09999990463257" x="1115.5">专业知识体系</text></g></g><g id="kity_g_12"><path id="kity_path_13" fill="none" stroke="none" d="M1115.5,373.5h0v0h0z"></path></g><g id="kity_g_14"><path id="kity_path_15" fill="none" stroke="none" d="M1115.5,373.5h0v0h0z"></path><path id="kity_path_16" fill="none" stroke="none"></path></g><g id="minder_node2"><g id="node_expander8" style="cursor: pointer;"><path id="kity_path_273" fill="white" stroke="gray" d="M1354.5,161.5A6,6,0,1,1,1342.5,161.5A6,6,0,1,1,1354.5,161.5"></path><path id="kity_path_274" fill="none" stroke="gray" d="M1344,161.5L1353,161.5"></path></g><path id="node_outline9" fill="rgb(238, 243, 246)" stroke="rgb(115, 161, 191)" d="M1358.5,148.5h64a3,3,0,0,1,3,3v20a3,3,0,0,1,-3,3h-64a3,3,0,0,1,-3,-3v-20a3,3,0,0,1,3,-3z" stroke-width="1"></path><g id="node_text9" fill="black"><text id="kity_text_129" text-rendering="inherit" font-size="14" dy=".8em" y="152.40000009536743" x="1375.5">C++</text></g></g><g id="minder_node3"><g id="node_expander1" display="none" style="cursor: pointer;"><path id="kity_path_252" fill="white" stroke="gray" d="M1465.5,31.5A6,6,0,1,1,1453.5,31.5A6,6,0,1,1,1465.5,31.5"></path><path id="kity_path_253" fill="none" stroke="gray"></path></g><path id="node_outline2" fill="none" stroke="none" d="M1470.5,20.5h60a5,5,0,0,1,5,5v12a5,5,0,0,1,-5,5h-60a5,5,0,0,1,-5,-5v-12a5,5,0,0,1,5,-5z"></path><g id="node_text2" fill="black"><text id="kity_text_115" text-rendering="inherit" font-size="12" dy=".8em" y="23.700000047683716" x="1475.5">基础知识</text></g></g><g id="minder_node4"><g id="node_expander2" display="none" style="cursor: pointer;"><path id="kity_path_255" fill="white" stroke="gray" d="M1465.5,83.5A6,6,0,1,1,1453.5,83.5A6,6,0,1,1,1465.5,83.5"></path><path id="kity_path_256" fill="none" stroke="gray"></path></g><path id="node_outline3" fill="none" stroke="none" d="M1470.5,72.5h25a5,5,0,0,1,5,5v12a5,5,0,0,1,-5,5h-25a5,5,0,0,1,-5,-5v-12a5,5,0,0,1,5,-5z"></path><g id="node_text3" fill="black"><text id="kity_text_117" text-rendering="inherit" font-size="12" dy=".8em" y="75.70000004768372" x="1475.5">Qt</text></g></g><g id="minder_node5"><g id="node_expander6" style="cursor: pointer;"><path id="kity_path_267" fill="white" stroke="gray" d="M1465.5,187.5A6,6,0,1,1,1453.5,187.5A6,6,0,1,1,1465.5,187.5"></path><path id="kity_path_268" fill="none" stroke="gray" d="M1455,187.5L1464,187.5"></path></g><path id="node_outline7" fill="none" stroke="none" d="M1470.5,171.5h60a5,5,0,0,1,5,5v22a5,5,0,0,1,-5,5h-60a5,5,0,0,1,-5,-5v-22a5,5,0,0,1,5,-5z"></path><g id="node_text7" fill="black"><text id="kity_text_125" text-rendering="inherit" font-size="12" dy=".8em" y="179.70000004768372" x="1475.5">STL</text></g><a id="kity_a_203" xmlns:xlink="http://www.w3.org/1999/xlink" xlink:href="http://net.pku.edu.cn/~yhf/UsingSTL.htm" target="_blank" xlink:title="三十分钟掌握STL(http://net.pku.edu.cn/~yhf/UsingSTL.htm)" style="cursor: pointer;"><path id="kity_path_205" fill="rgba(255, 255, 255, 0)" stroke="none" d="M1505.5,176.5h16a4,4,0,0,1,4,4v14a4,4,0,0,1,-4,4h-16a4,4,0,0,1,-4,-4v-14a4,4,0,0,1,4,-4z"></path><path id="kity_path_204" fill="#666" stroke="none" d="M1520.114,192.724h-1.278c-1.668,0,-3.07,-1.07,-3.599,-2.556h4.877c0.707,0,1.278,-0.571,1.278,-1.278V186.334c0,-0.707,-0.571,-1.278,-1.278,-1.278h-4.877C1515.766,183.571,1517.168,182.5,1518.836,182.5h1.278c2.116,0,3.834,1.716,3.834,3.834V188.89C1523.948,191.008,1522.23,192.724,1520.114,192.724zM1508.612,187.612c0,-0.707,0.573,-1.278,1.278,-1.278h7.668c0.707,0,1.278,0.571,1.278,1.278S1518.265,188.89,1517.558,188.89H1509.89C1509.185,188.89,1508.612,188.319,1508.612,187.612zM1506.056,186.334V188.89c0,0.707,0.573,1.278,1.278,1.278h4.877c-0.528,1.486,-1.932,2.556,-3.599,2.556H1507.334C1505.216,192.724,1503.5,191.008,1503.5,188.89V186.334C1503.5,184.216,1505.216,182.5,1507.334,182.5h1.278c1.667,0,3.071,1.071,3.599,2.556H1507.334C1506.629,185.056,1506.056,185.627,1506.056,186.334z"></path></a></g><g id="minder_node6"><g id="node_expander3" display="none" style="cursor: pointer;"><path id="kity_path_258" fill="white" stroke="gray" d="M1575.5,135.5A6,6,0,1,1,1563.5,135.5A6,6,0,1,1,1575.5,135.5"></path><path id="kity_path_259" fill="none" stroke="gray"></path></g><path id="node_outline4" fill="none" stroke="none" d="M1580.5,124.5h60a5,5,0,0,1,5,5v12a5,5,0,0,1,-5,5h-60a5,5,0,0,1,-5,-5v-12a5,5,0,0,1,5,-5z"></path><g id="node_text4" fill="black"><text id="kity_text_119" text-rendering="inherit" font-size="12" dy=".8em" y="127.70000004768372" x="1585.5">基本容器</text></g></g><g id="minder_node7"><g id="node_expander4" display="none" style="cursor: pointer;"><path id="kity_path_261" fill="white" stroke="gray" d="M1575.5,187.5A6,6,0,1,1,1563.5,187.5A6,6,0,1,1,1575.5,187.5"></path><path id="kity_path_262" fill="none" stroke="gray"></path></g><path id="node_outline5" fill="none" stroke="none" d="M1580.5,176.5h48a5,5,0,0,1,5,5v12a5,5,0,0,1,-5,5h-48a5,5,0,0,1,-5,-5v-12a5,5,0,0,1,5,-5z"></path><g id="node_text5" fill="black"><text id="kity_text_121" text-rendering="inherit" font-size="12" dy=".8em" y="179.70000004768372" x="1585.5">迭代器</text></g></g><g id="minder_node8"><g id="node_expander5" display="none" style="cursor: pointer;"><path id="kity_path_264" fill="white" stroke="gray" d="M1575.5,239.5A6,6,0,1,1,1563.5,239.5A6,6,0,1,1,1575.5,239.5"></path><path id="kity_path_265" fill="none" stroke="gray"></path></g><path id="node_outline6" fill="none" stroke="none" d="M1580.5,228.5h83a5,5,0,0,1,5,5v12a5,5,0,0,1,-5,5h-83a5,5,0,0,1,-5,-5v-12a5,5,0,0,1,5,-5z"></path><g id="node_text6" fill="black"><text id="kity_text_123" text-rendering="inherit" font-size="12" dy=".8em" y="231.70000004768372" x="1585.5">算法（函数）</text></g></g><g id="minder_node9"><g id="node_expander7" display="none" style="cursor: pointer;"><path id="kity_path_270" fill="white" stroke="gray" d="M1465.5,291.5A6,6,0,1,1,1453.5,291.5A6,6,0,1,1,1465.5,291.5"></path><path id="kity_path_271" fill="none" stroke="gray"></path></g><path id="node_outline8" fill="none" stroke="none" d="M1470.5,280.5h108a5,5,0,0,1,5,5v12a5,5,0,0,1,-5,5h-108a5,5,0,0,1,-5,-5v-12a5,5,0,0,1,5,-5z"></path><g id="node_text8" fill="black"><text id="kity_text_127" text-rendering="inherit" font-size="12" dy=".8em" y="283.7000000476837" x="1475.5">封装、继承、多态</text></g></g><g id="minder_node10"><g id="node_expander12" style="cursor: pointer;"><path id="kity_path_285" fill="white" stroke="gray" d="M1354.5,379.5A6,6,0,1,1,1342.5,379.5A6,6,0,1,1,1354.5,379.5"></path><path id="kity_path_286" fill="none" stroke="gray" d="M1344,379.5L1353,379.5"></path></g><path id="node_outline13" fill="rgb(238, 243, 246)" stroke="rgb(115, 161, 191)" d="M1358.5,366.5h81a3,3,0,0,1,3,3v20a3,3,0,0,1,-3,3h-81a3,3,0,0,1,-3,-3v-20a3,3,0,0,1,3,-3z" stroke-width="1"></path><g id="node_text13" fill="black"><text id="kity_text_137" text-rendering="inherit" font-size="14" dy=".8em" y="370.40000009536743" x="1375.5">Python</text></g></g><g id="minder_node11"><g id="node_expander9" display="none" style="cursor: pointer;"><path id="kity_path_276" fill="white" stroke="gray" d="M1482.5,353.5A6,6,0,1,1,1470.5,353.5A6,6,0,1,1,1482.5,353.5"></path><path id="kity_path_277" fill="none" stroke="gray"></path></g><path id="node_outline10" fill="none" stroke="none" d="M1487.5,342.5h60a5,5,0,0,1,5,5v12a5,5,0,0,1,-5,5h-60a5,5,0,0,1,-5,-5v-12a5,5,0,0,1,5,-5z"></path><g id="node_text10" fill="black"><text id="kity_text_131" text-rendering="inherit" font-size="12" dy=".8em" y="345.7000000476837" x="1492.5">基础知识</text></g></g><g id="minder_node12"><g id="node_expander11" style="cursor: pointer;"><path id="kity_path_282" fill="white" stroke="gray" d="M1482.5,405.5A6,6,0,1,1,1470.5,405.5A6,6,0,1,1,1482.5,405.5"></path><path id="kity_path_283" fill="none" stroke="gray" d="M1472,405.5L1481,405.5"></path></g><path id="node_outline12" fill="none" stroke="none" d="M1487.5,394.5h35a5,5,0,0,1,5,5v12a5,5,0,0,1,-5,5h-35a5,5,0,0,1,-5,-5v-12a5,5,0,0,1,5,-5z"></path><g id="node_text12" fill="black"><text id="kity_text_135" text-rendering="inherit" font-size="12" dy=".8em" y="397.7000000476837" x="1492.5">应用</text></g></g><g id="minder_node13"><g id="node_expander10" display="none" style="cursor: pointer;"><path id="kity_path_279" fill="white" stroke="gray" d="M1567.5,405.5A6,6,0,1,1,1555.5,405.5A6,6,0,1,1,1567.5,405.5"></path><path id="kity_path_280" fill="none" stroke="gray"></path></g><path id="node_outline11" fill="none" stroke="none" d="M1572.5,394.5h36a5,5,0,0,1,5,5v12a5,5,0,0,1,-5,5h-36a5,5,0,0,1,-5,-5v-12a5,5,0,0,1,5,-5z"></path><g id="node_text11" fill="black"><text id="kity_text_133" text-rendering="inherit" font-size="12" dy=".8em" y="397.7000000476837" x="1577.5">爬虫</text></g></g><g id="minder_node14"><g id="node_expander14" style="cursor: pointer;"><path id="kity_path_291" fill="white" stroke="gray" d="M1354.5,469.5A6,6,0,1,1,1342.5,469.5A6,6,0,1,1,1354.5,469.5"></path><path id="kity_path_292" fill="none" stroke="gray" d="M1344,469.5L1353,469.5"></path></g><path id="node_outline15" fill="rgb(238, 243, 246)" stroke="rgb(115, 161, 191)" d="M1358.5,456.5h70a3,3,0,0,1,3,3v20a3,3,0,0,1,-3,3h-70a3,3,0,0,1,-3,-3v-20a3,3,0,0,1,3,-3z" stroke-width="1"></path><g id="node_text15" fill="black"><text id="kity_text_141" text-rendering="inherit" font-size="14" dy=".8em" y="460.40000009536743" x="1375.5">Linux</text></g></g><g id="minder_node15"><g id="node_expander13" display="none" style="cursor: pointer;"><path id="kity_path_288" fill="white" stroke="gray" d="M1471.5,469.5A6,6,0,1,1,1459.5,469.5A6,6,0,1,1,1471.5,469.5"></path><path id="kity_path_289" fill="none" stroke="gray"></path></g><path id="node_outline14" fill="none" stroke="none" d="M1476.5,458.5h60a5,5,0,0,1,5,5v12a5,5,0,0,1,-5,5h-60a5,5,0,0,1,-5,-5v-12a5,5,0,0,1,5,-5z"></path><g id="node_text14" fill="black"><text id="kity_text_139" text-rendering="inherit" font-size="12" dy=".8em" y="461.7000000476837" x="1481.5">基础知识</text></g></g><g id="minder_node16"><g id="node_expander18" style="cursor: pointer;"><path id="kity_path_303" fill="white" stroke="gray" d="M1354.5,585.5A6,6,0,1,1,1342.5,585.5A6,6,0,1,1,1354.5,585.5"></path><path id="kity_path_304" fill="none" stroke="gray" d="M1344,585.5L1353,585.5"></path></g><path id="node_outline19" fill="rgb(238, 243, 246)" stroke="rgb(115, 161, 191)" d="M1358.5,572.5h108a3,3,0,0,1,3,3v20a3,3,0,0,1,-3,3h-108a3,3,0,0,1,-3,-3v-20a3,3,0,0,1,3,-3z" stroke-width="1"></path><g id="node_text19" fill="black"><text id="kity_text_149" text-rendering="inherit" font-size="14" dy=".8em" y="576.4000000953674" x="1375.5">OpenResty</text></g></g><g id="minder_node17"><g id="node_expander15" display="none" style="cursor: pointer;"><path id="kity_path_294" fill="white" stroke="gray" d="M1509.5,533.5A6,6,0,1,1,1497.5,533.5A6,6,0,1,1,1509.5,533.5"></path><path id="kity_path_295" fill="none" stroke="gray"></path></g><path id="node_outline16" fill="none" stroke="none" d="M1514.5,522.5h60a5,5,0,0,1,5,5v12a5,5,0,0,1,-5,5h-60a5,5,0,0,1,-5,-5v-12a5,5,0,0,1,5,-5z"></path><g id="node_text16" fill="black"><text id="kity_text_143" text-rendering="inherit" font-size="12" dy=".8em" y="525.7000000476837" x="1519.5">增加请求</text></g></g><g id="minder_node18"><g id="node_expander16" display="none" style="cursor: pointer;"><path id="kity_path_297" fill="white" stroke="gray" d="M1509.5,585.5A6,6,0,1,1,1497.5,585.5A6,6,0,1,1,1509.5,585.5"></path><path id="kity_path_298" fill="none" stroke="gray"></path></g><path id="node_outline17" fill="none" stroke="none" d="M1514.5,574.5h72a5,5,0,0,1,5,5v12a5,5,0,0,1,-5,5h-72a5,5,0,0,1,-5,-5v-12a5,5,0,0,1,5,-5z"></path><g id="node_text17" fill="black"><text id="kity_text_145" text-rendering="inherit" font-size="12" dy=".8em" y="577.7000000476837" x="1519.5">文件服务器</text></g></g><g id="minder_node19"><g id="node_expander17" display="none" style="cursor: pointer;"><path id="kity_path_300" fill="white" stroke="gray" d="M1509.5,637.5A6,6,0,1,1,1497.5,637.5A6,6,0,1,1,1509.5,637.5"></path><path id="kity_path_301" fill="none" stroke="gray"></path></g><path id="node_outline18" fill="none" stroke="none" d="M1514.5,626.5h77a5,5,0,0,1,5,5v12a5,5,0,0,1,-5,5h-77a5,5,0,0,1,-5,-5v-12a5,5,0,0,1,5,-5z"></path><g id="node_text18" fill="black"><text id="kity_text_147" text-rendering="inherit" font-size="12" dy=".8em" y="629.7000000476837" x="1519.5">连接MySQL</text></g></g><g id="minder_node20"><g id="node_expander21" style="cursor: pointer;"><path id="kity_path_312" fill="white" stroke="gray" d="M984.5,98.5A6,6,0,1,1,972.5,98.5A6,6,0,1,1,984.5,98.5"></path><path id="kity_path_313" fill="none" stroke="gray" d="M974,98.5L983,98.5"></path></g><path id="node_outline22" fill="rgb(238, 243, 246)" stroke="rgb(115, 161, 191)" d="M891.5,85.5h77a3,3,0,0,1,3,3v20a3,3,0,0,1,-3,3h-77a3,3,0,0,1,-3,-3v-20a3,3,0,0,1,3,-3z" stroke-width="1"></path><g id="node_text22" fill="black"><text id="kity_text_155" text-rendering="inherit" font-size="14" dy=".8em" y="89.40000009536743" x="908.5">数据库</text></g></g><g id="minder_node21"><g id="node_expander19" display="none" style="cursor: pointer;"><path id="kity_path_306" fill="white" stroke="gray" d="M860.5,72.5A6,6,0,1,1,848.5,72.5A6,6,0,1,1,860.5,72.5"></path><path id="kity_path_307" fill="none" stroke="gray"></path></g><path id="node_outline20" fill="none" stroke="none" d="M791.5,61.5h52a5,5,0,0,1,5,5v12a5,5,0,0,1,-5,5h-52a5,5,0,0,1,-5,-5v-12a5,5,0,0,1,5,-5z"></path><g id="node_text20" fill="black"><text id="kity_text_151" text-rendering="inherit" font-size="12" dy=".8em" y="64.70000004768372" x="796.5">MySQL</text></g></g><g id="minder_node22"><g id="node_expander20" display="none" style="cursor: pointer;"><path id="kity_path_309" fill="white" stroke="gray" d="M860.5,124.5A6,6,0,1,1,848.5,124.5A6,6,0,1,1,860.5,124.5"></path><path id="kity_path_310" fill="none" stroke="gray"></path></g><path id="node_outline21" fill="none" stroke="none" d="M796.5,113.5h47a5,5,0,0,1,5,5v12a5,5,0,0,1,-5,5h-47a5,5,0,0,1,-5,-5v-12a5,5,0,0,1,5,-5z"></path><g id="node_text21" fill="black"><text id="kity_text_153" text-rendering="inherit" font-size="12" dy=".8em" y="116.70000004768372" x="801.5">Oracle</text></g></g><g id="minder_node23"><g id="node_expander24" style="cursor: pointer;"><path id="kity_path_321" fill="white" stroke="gray" d="M984.5,212.5A6,6,0,1,1,972.5,212.5A6,6,0,1,1,984.5,212.5"></path><path id="kity_path_322" fill="none" stroke="gray" d="M974,212.5L983,212.5"></path></g><path id="node_outline25" fill="rgb(238, 243, 246)" stroke="rgb(115, 161, 191)" d="M891.5,199.5h77a3,3,0,0,1,3,3v20a3,3,0,0,1,-3,3h-77a3,3,0,0,1,-3,-3v-20a3,3,0,0,1,3,-3z" stroke-width="1"></path><g id="node_text25" fill="black"><text id="kity_text_161" text-rendering="inherit" font-size="14" dy=".8em" y="203.40000009536743" x="908.5">嵌入式</text></g></g><g id="minder_node24"><g id="node_expander22" display="none" style="cursor: pointer;"><path id="kity_path_315" fill="white" stroke="gray" d="M860.5,186.5A6,6,0,1,1,848.5,186.5A6,6,0,1,1,860.5,186.5"></path><path id="kity_path_316" fill="none" stroke="gray"></path></g><path id="node_outline23" fill="none" stroke="none" d="M771.5,175.5h72a5,5,0,0,1,5,5v12a5,5,0,0,1,-5,5h-72a5,5,0,0,1,-5,-5v-12a5,5,0,0,1,5,-5z"></path><g id="node_text23" fill="black"><text id="kity_text_157" text-rendering="inherit" font-size="12" dy=".8em" y="178.70000004768372" x="776.5">交叉编译链</text></g></g><g id="minder_node25"><g id="node_expander23" display="none" style="cursor: pointer;"><path id="kity_path_318" fill="white" stroke="gray" d="M860.5,238.5A6,6,0,1,1,848.5,238.5A6,6,0,1,1,860.5,238.5"></path><path id="kity_path_319" fill="none" stroke="gray"></path></g><path id="node_outline24" fill="none" stroke="none" d="M795.5,227.5h48a5,5,0,0,1,5,5v12a5,5,0,0,1,-5,5h-48a5,5,0,0,1,-5,-5v-12a5,5,0,0,1,5,-5z"></path><g id="node_text24" fill="black"><text id="kity_text_159" text-rendering="inherit" font-size="12" dy=".8em" y="230.70000004768372" x="800.5">应用层</text></g></g><g id="minder_node26"><g id="node_expander42" style="cursor: pointer;"><path id="kity_path_375" fill="white" stroke="gray" d="M984.5,644.5A6,6,0,1,1,972.5,644.5A6,6,0,1,1,984.5,644.5"></path><path id="kity_path_376" fill="none" stroke="gray" d="M974,644.5L983,644.5"></path></g><path id="node_outline43" fill="rgb(238, 243, 246)" stroke="rgb(115, 161, 191)" d="M848.5,627.5h120a3,3,0,0,1,3,3v28a3,3,0,0,1,-3,3h-120a3,3,0,0,1,-3,-3v-28a3,3,0,0,1,3,-3z" stroke-width="1"></path><g id="node_text43" fill="black"><text id="kity_text_202" text-rendering="inherit" font-size="14" dy=".8em" y="635.4000000953674" x="865.5">设计模式</text></g><a id="kity_a_206" xmlns:xlink="http://www.w3.org/1999/xlink" xlink:href="https://github.com/CyC2018/CS-Notes/blob/master/docs/notes/%E8%AE%BE%E8%AE%A1%E6%A8%A1%E5%BC%8F.md#5-%E7%94%9F%E6%88%90%E5%99%A8builder" target="_blank" xlink:title="https://github.com/CyC2018/CS-Notes/blob/master/docs/notes/%E8%AE%BE%E8%AE%A1%E6%A8%A1%E5%BC%8F.md#5-%E7%94%9F%E6%88%90%E5%99%A8builder" style="cursor: pointer;"><path id="kity_path_208" fill="rgba(255, 255, 255, 0)" stroke="none" d="M931.5,633.5h16a4,4,0,0,1,4,4v14a4,4,0,0,1,-4,4h-16a4,4,0,0,1,-4,-4v-14a4,4,0,0,1,4,-4z"></path><path id="kity_path_207" fill="#666" stroke="none" d="M946.114,649.724h-1.278c-1.668,0,-3.07,-1.07,-3.599,-2.556h4.877c0.707,0,1.278,-0.571,1.278,-1.278V643.334c0,-0.707,-0.571,-1.278,-1.278,-1.278h-4.877C941.766,640.571,943.168,639.5,944.836,639.5h1.278c2.116,0,3.834,1.716,3.834,3.834V645.89C949.948,648.008,948.23,649.724,946.114,649.724zM934.612,644.612c0,-0.707,0.573,-1.278,1.278,-1.278h7.668c0.707,0,1.278,0.571,1.278,1.278S944.265,645.89,943.558,645.89H935.89C935.185,645.89,934.612,645.319,934.612,644.612zM932.056,643.334V645.89c0,0.707,0.573,1.278,1.278,1.278h4.877c-0.528,1.486,-1.932,2.556,-3.599,2.556H933.334C931.216,649.724,929.5,648.008,929.5,645.89V643.334C929.5,641.216,931.216,639.5,933.334,639.5h1.278c1.667,0,3.071,1.071,3.599,2.556H933.334C932.629,642.056,932.056,642.627,932.056,643.334z"></path></a></g><g id="minder_node27"><g id="node_expander37" style="cursor: pointer;"><path id="kity_path_360" fill="white" stroke="gray" d="M817.5,483.5A6,6,0,1,1,805.5,483.5A6,6,0,1,1,817.5,483.5"></path><path id="kity_path_361" fill="none" stroke="gray" d="M807,483.5L816,483.5"></path></g><path id="node_outline38" fill="none" stroke="none" d="M765.5,472.5h35a5,5,0,0,1,5,5v12a5,5,0,0,1,-5,5h-35a5,5,0,0,1,-5,-5v-12a5,5,0,0,1,5,-5z"></path><g id="node_text38" fill="black"><text id="kity_text_190" text-rendering="inherit" font-size="12" dy=".8em" y="475.7000000476837" x="770.5">单例</text></g></g><g id="minder_node28"><g id="node_expander25" display="none" style="cursor: pointer;"><path id="kity_path_324" fill="white" stroke="gray" d="M732.5,301.5A6,6,0,1,1,720.5,301.5A6,6,0,1,1,732.5,301.5"></path><path id="kity_path_325" fill="none" stroke="gray"></path></g><path id="node_outline26" fill="none" stroke="none" d="M416.5,290.5h299a5,5,0,0,1,5,5v12a5,5,0,0,1,-5,5h-299a5,5,0,0,1,-5,-5v-12a5,5,0,0,1,5,-5z"></path><g id="node_text26" fill="black"><text id="kity_text_163" text-rendering="inherit" font-size="12" dy=".8em" y="293.7000000476837" x="421.5">确保一个类只有一个实例，并提供该实例的全局访问点</text></g></g><g id="minder_node29"><g id="node_expander28" style="cursor: pointer;"><path id="kity_path_333" fill="white" stroke="gray" d="M732.5,379.5A6,6,0,1,1,720.5,379.5A6,6,0,1,1,732.5,379.5"></path><path id="kity_path_334" fill="none" stroke="gray" d="M722,379.5L731,379.5"></path></g><path id="node_outline29" fill="none" stroke="none" d="M602.5,368.5h113a5,5,0,0,1,5,5v12a5,5,0,0,1,-5,5h-113a5,5,0,0,1,-5,-5v-12a5,5,0,0,1,5,-5z"></path><g id="node_text29" fill="black"><text id="kity_text_169" text-rendering="inherit" font-size="12" dy=".8em" y="371.7000000476837" x="607.5">懒汉式-线程不安全</text></g></g><g id="minder_node30"><g id="node_expander26" display="none" style="cursor: pointer;"><path id="kity_path_327" fill="white" stroke="gray" d="M569.5,353.5A6,6,0,1,1,557.5,353.5A6,6,0,1,1,569.5,353.5"></path><path id="kity_path_328" fill="none" stroke="gray"></path></g><path id="node_outline27" fill="none" stroke="none" d="M336.5,342.5h216a5,5,0,0,1,5,5v12a5,5,0,0,1,-5,5h-216a5,5,0,0,1,-5,-5v-12a5,5,0,0,1,5,-5z"></path><g id="node_text27" fill="black"><text id="kity_text_165" text-rendering="inherit" font-size="12" dy=".8em" y="345.7000000476837" x="341.5">延迟实例化，多线程将导致实例化多次</text></g></g><g id="minder_node31"><g id="node_expander27" display="none" style="cursor: pointer;"><path id="kity_path_330" fill="white" stroke="gray" d="M569.5,405.5A6,6,0,1,1,557.5,405.5A6,6,0,1,1,569.5,405.5"></path><path id="kity_path_331" fill="none" stroke="gray"></path></g><path id="node_outline28" fill="none" stroke="none" d="M181.5,394.5h371a5,5,0,0,1,5,5v12a5,5,0,0,1,-5,5h-371a5,5,0,0,1,-5,-5v-12a5,5,0,0,1,5,-5z"></path><g id="node_text28" fill="black"><text id="kity_text_167" text-rendering="inherit" font-size="12" dy=".8em" y="397.7000000476837" x="186.5">if (uniqueInstance == null) {uniqueInstance = new Singleton();}</text></g></g><g id="minder_node32"><g id="node_expander31" style="cursor: pointer;"><path id="kity_path_342" fill="white" stroke="gray" d="M732.5,483.5A6,6,0,1,1,720.5,483.5A6,6,0,1,1,732.5,483.5"></path><path id="kity_path_343" fill="none" stroke="gray" d="M722,483.5L731,483.5"></path></g><path id="node_outline32" fill="none" stroke="none" d="M614.5,472.5h101a5,5,0,0,1,5,5v12a5,5,0,0,1,-5,5h-101a5,5,0,0,1,-5,-5v-12a5,5,0,0,1,5,-5z"></path><g id="node_text32" fill="black"><text id="kity_text_175" text-rendering="inherit" font-size="12" dy=".8em" y="475.7000000476837" x="619.5">饿汉式-线程安全</text></g></g><g id="minder_node33"><g id="node_expander29" display="none" style="cursor: pointer;"><path id="kity_path_336" fill="white" stroke="gray" d="M581.5,457.5A6,6,0,1,1,569.5,457.5A6,6,0,1,1,581.5,457.5"></path><path id="kity_path_337" fill="none" stroke="gray"></path></g><path id="node_outline30" fill="none" stroke="none" d="M264.5,446.5h300a5,5,0,0,1,5,5v12a5,5,0,0,1,-5,5h-300a5,5,0,0,1,-5,-5v-12a5,5,0,0,1,5,-5z"></path><g id="node_text30" fill="black"><text id="kity_text_171" text-rendering="inherit" font-size="12" dy=".8em" y="449.7000000476837" x="269.5">直接实例化，丢失了延迟实例化带来的节约资源的好处</text></g></g><g id="minder_node34"><g id="node_expander30" display="none" style="cursor: pointer;"><path id="kity_path_339" fill="white" stroke="gray" d="M581.5,509.5A6,6,0,1,1,569.5,509.5A6,6,0,1,1,581.5,509.5"></path><path id="kity_path_340" fill="none" stroke="gray"></path></g><path id="node_outline31" fill="none" stroke="none" d="M222.5,498.5h342a5,5,0,0,1,5,5v12a5,5,0,0,1,-5,5h-342a5,5,0,0,1,-5,-5v-12a5,5,0,0,1,5,-5z"></path><g id="node_text31" fill="black"><text id="kity_text_173" text-rendering="inherit" font-size="12" dy=".8em" y="501.7000000476837" x="227.5">private static Singleton uniqueInstance = new Singleton();</text></g></g><g id="minder_node35"><g id="node_expander33" style="cursor: pointer;"><path id="kity_path_348" fill="white" stroke="gray" d="M732.5,561.5A6,6,0,1,1,720.5,561.5A6,6,0,1,1,732.5,561.5"></path><path id="kity_path_349" fill="none" stroke="gray" d="M722,561.5L731,561.5"></path></g><path id="node_outline34" fill="none" stroke="none" d="M614.5,550.5h101a5,5,0,0,1,5,5v12a5,5,0,0,1,-5,5h-101a5,5,0,0,1,-5,-5v-12a5,5,0,0,1,5,-5z"></path><g id="node_text34" fill="black"><text id="kity_text_179" text-rendering="inherit" font-size="12" dy=".8em" y="553.7000000476837" x="619.5">懒汉式-线程安全</text></g></g><g id="minder_node36"><g id="node_expander32" display="none" style="cursor: pointer;"><path id="kity_path_345" fill="white" stroke="gray" d="M581.5,561.5A6,6,0,1,1,569.5,561.5A6,6,0,1,1,581.5,561.5"></path><path id="kity_path_346" fill="none" stroke="gray"></path></g><path id="node_outline33" fill="none" stroke="none" d="M337.5,550.5h227a5,5,0,0,1,5,5v12a5,5,0,0,1,-5,5h-227a5,5,0,0,1,-5,-5v-12a5,5,0,0,1,5,-5z"></path><g id="node_text33" fill="black"><text id="kity_text_177" text-rendering="inherit" font-size="12" dy=".8em" y="553.7000000476837" x="342.5">实例化时加锁，有性能问题，不推荐使用</text></g></g><g id="minder_node37"><g id="node_expander36" style="cursor: pointer;"><path id="kity_path_357" fill="white" stroke="gray" d="M732.5,666.5A6,6,0,1,1,720.5,666.5A6,6,0,1,1,732.5,666.5"></path><path id="kity_path_358" fill="none" stroke="gray" d="M722,666.5L731,666.5"></path></g><path id="node_outline37" fill="none" stroke="none" d="M590.5,655.5h125a5,5,0,0,1,5,5v12a5,5,0,0,1,-5,5h-125a5,5,0,0,1,-5,-5v-12a5,5,0,0,1,5,-5z"></path><g id="node_text37" fill="black"><text id="kity_text_188" text-rendering="inherit" font-size="12" dy=".8em" y="658.7000000476837" x="595.5">双重校验锁-线程安全</text></g></g><g id="minder_node38"><g id="node_expander34" display="none" style="cursor: pointer;"><path id="kity_path_351" fill="white" stroke="gray" d="M557.5,613.5A6,6,0,1,1,545.5,613.5A6,6,0,1,1,557.5,613.5"></path><path id="kity_path_352" fill="none" stroke="gray"></path></g><path id="node_outline35" fill="none" stroke="none" d="M25.5,602.5h515a5,5,0,0,1,5,5v12a5,5,0,0,1,-5,5h-515a5,5,0,0,1,-5,-5v-12a5,5,0,0,1,5,-5z"></path><g id="node_text35" fill="black"><text id="kity_text_181" text-rendering="inherit" font-size="12" dy=".8em" y="605.7000000476837" x="30.5">先判断 uniqueInstance 是否已经被实例化，如果没有被实例化，那么才对实例化语句进行加锁</text></g></g><g id="minder_node39"><g id="node_expander35" display="none" style="cursor: pointer;"><path id="kity_path_354" fill="white" stroke="gray" d="M557.5,692.5A6,6,0,1,1,545.5,692.5A6,6,0,1,1,557.5,692.5"></path><path id="kity_path_355" fill="none" stroke="gray"></path></g><path id="node_outline36" fill="none" stroke="none" d="M321.5,654.5h219a5,5,0,0,1,5,5v66a5,5,0,0,1,-5,5h-219a5,5,0,0,1,-5,-5v-66a5,5,0,0,1,5,-5z"></path><g id="node_text36" fill="black"><text id="kity_text_183" text-rendering="inherit" font-size="12" dy=".8em" y="657.7000000476837" x="326.5">if (uniqueInstance == null) {</text><text id="kity_text_184" text-rendering="inherit" font-size="12" dy=".8em" y="675.7000000476837" x="326.5">	        synchronized (Singleton.class) {</text><text id="kity_text_185" text-rendering="inherit" font-size="12" dy=".8em" y="693.7000000476837" x="326.5">	            if (uniqueInstance == null) {</text><text id="kity_text_186" text-rendering="inherit" font-size="12" dy=".8em" y="711.7000000476837" x="326.5">	                uniqueInstance = new Singleton();}}}</text></g></g><g id="minder_node40"><g id="node_expander41" style="cursor: pointer;"><path id="kity_path_372" fill="white" stroke="gray" d="M817.5,805.5A6,6,0,1,1,805.5,805.5A6,6,0,1,1,817.5,805.5"></path><path id="kity_path_373" fill="none" stroke="gray" d="M807,805.5L816,805.5"></path></g><path id="node_outline42" fill="none" stroke="none" d="M574.5,794.5h226a5,5,0,0,1,5,5v12a5,5,0,0,1,-5,5h-226a5,5,0,0,1,-5,-5v-12a5,5,0,0,1,5,-5z"></path><g id="node_text42" fill="black"><text id="kity_text_200" text-rendering="inherit" font-size="12" dy=".8em" y="797.7000000476837" x="579.5">工厂模式（简单工厂、工厂、抽象工厂）</text></g></g><g id="minder_node41"><g id="node_expander38" display="none" style="cursor: pointer;"><path id="kity_path_363" fill="white" stroke="gray" d="M541.5,770.5A6,6,0,1,1,529.5,770.5A6,6,0,1,1,541.5,770.5"></path><path id="kity_path_364" fill="none" stroke="gray"></path></g><path id="node_outline39" fill="none" stroke="none" d="M117.5,759.5h407a5,5,0,0,1,5,5v12a5,5,0,0,1,-5,5h-407a5,5,0,0,1,-5,-5v-12a5,5,0,0,1,5,-5z"></path><g id="node_text39" fill="black"><text id="kity_text_192" text-rendering="inherit" font-size="12" dy=".8em" y="762.7000000476837" x="122.5">在创建一个对象时不向客户暴露内部细节，并提供一个创建对象的通用接口</text></g></g><g id="minder_node42"><g id="node_expander40" style="cursor: pointer;"><path id="kity_path_369" fill="white" stroke="gray" d="M541.5,840.5A6,6,0,1,1,529.5,840.5A6,6,0,1,1,541.5,840.5"></path><path id="kity_path_370" fill="none" stroke="gray" d="M531,840.5L540,840.5"></path></g><path id="node_outline41" fill="none" stroke="none" d="M464.5,829.5h60a5,5,0,0,1,5,5v12a5,5,0,0,1,-5,5h-60a5,5,0,0,1,-5,-5v-12a5,5,0,0,1,5,-5z"></path><g id="node_text41" fill="black"><text id="kity_text_198" text-rendering="inherit" font-size="12" dy=".8em" y="832.7000000476837" x="469.5">分支主题</text></g></g><g id="minder_node43"><g id="node_expander39" display="none" style="cursor: pointer;"><path id="kity_path_366" fill="white" stroke="gray" d="M431.5,840.5A6,6,0,1,1,419.5,840.5A6,6,0,1,1,431.5,840.5"></path><path id="kity_path_367" fill="none" stroke="gray"></path></g><path id="node_outline40" fill="none" stroke="none" d="M138.5,811.5h276a5,5,0,0,1,5,5v48a5,5,0,0,1,-5,5h-276a5,5,0,0,1,-5,-5v-48a5,5,0,0,1,5,-5z"></path><g id="node_text40" fill="black"><text id="kity_text_194" text-rendering="inherit" font-size="12" dy=".8em" y="814.7000000476837" x="143.5">简单工厂把实例化的操作单独放到一个类中，</text><text id="kity_text_195" text-rendering="inherit" font-size="12" dy=".8em" y="832.7000000476837" x="143.5">这个类就成为简单工厂类，</text><text id="kity_text_196" text-rendering="inherit" font-size="12" dy=".8em" y="850.7000000476837" x="143.5">让简单工厂类来决定应该用哪个具体子类来实例化</text></g></g></g></g></svg>